<svg width="180" height="39" viewBox="0 0 365 39" fill="none" xmlns="http://www.w3.org/2000/svg">
<path d="M52.264 26L45.068 7.324H40.084L32.86 26H37.396L38.572 22.836H46.58L47.728 26H52.264ZM45.488 19.336H39.664L42.576 11.3L45.488 19.336ZM67.761 26C71.317 26 73.193 23.76 73.193 20.96C73.193 18.608 71.597 16.676 69.609 16.368C71.373 16.004 72.829 14.436 72.829 12.084C72.829 9.592 71.009 7.324 67.453 7.324H57.625V26H67.761ZM66.585 14.8H61.601V10.74H66.585C67.929 10.74 68.769 11.608 68.769 12.784C68.769 13.96 67.929 14.8 66.585 14.8ZM66.725 22.556H61.601V18.216H66.725C68.293 18.216 69.133 19.224 69.133 20.4C69.133 21.744 68.237 22.556 66.725 22.556ZM88.6758 26.336C94.3318 26.336 98.4478 22.304 98.4478 16.676C98.4478 11.048 94.3318 7.016 88.6758 7.016C83.0478 7.016 78.9318 11.048 78.9318 16.676C78.9318 22.304 83.0478 26.336 88.6758 26.336ZM88.6758 22.808C85.2318 22.808 83.0198 20.148 83.0198 16.676C83.0198 13.176 85.2318 10.544 88.6758 10.544C92.1198 10.544 94.3598 13.176 94.3598 16.676C94.3598 20.148 92.1198 22.808 88.6758 22.808ZM113.302 26.336C118.986 26.336 121.73 23.172 121.73 18.524V7.324H117.67V18.412C117.67 21.016 116.186 22.808 113.302 22.808C110.418 22.808 108.906 21.016 108.906 18.412V7.324H104.874V18.552C104.874 23.144 107.618 26.336 113.302 26.336ZM137.362 26V10.824H142.794V7.324H127.898V10.824H133.358V26H137.362ZM167.143 26C172.995 26 177.055 22.304 177.055 16.676C177.055 11.048 172.995 7.324 167.143 7.324H159.779V26H167.143ZM167.143 22.5H163.755V10.824H167.143C170.979 10.824 172.995 13.372 172.995 16.676C172.995 19.84 170.839 22.5 167.143 22.5ZM187.489 26V7.324H183.513V26H187.489ZM203.877 26.364C207.265 26.364 209.925 24.964 211.829 22.836V15.668H202.925V19.14H207.853V21.38C207.097 22.08 205.529 22.808 203.877 22.808C200.489 22.808 198.025 20.204 198.025 16.676C198.025 13.148 200.489 10.544 203.877 10.544C205.865 10.544 207.461 11.664 208.301 12.98L211.605 11.188C210.205 8.976 207.769 7.016 203.877 7.016C198.417 7.016 193.937 10.768 193.937 16.676C193.937 22.556 198.417 26.364 203.877 26.364ZM222.598 26V7.324H218.622V26H222.598ZM236.578 26.336C241.618 26.336 244.054 23.76 244.054 20.344C244.054 13.372 233.33 15.36 233.33 12.392C233.33 11.272 234.282 10.516 235.99 10.516C237.894 10.516 239.91 11.16 241.422 12.56L243.634 9.648C241.786 7.94 239.322 7.044 236.354 7.044C231.958 7.044 229.27 9.62 229.27 12.728C229.27 19.756 240.022 17.488 240.022 20.792C240.022 21.856 238.958 22.864 236.774 22.864C234.198 22.864 232.154 21.716 230.838 20.344L228.682 23.368C230.418 25.132 232.994 26.336 236.578 26.336ZM267.51 26L260.314 7.324H255.33L248.106 26H252.642L253.818 22.836H261.826L262.974 26H267.51ZM260.734 19.336H254.91L257.822 11.3L260.734 19.336ZM284.743 26V22.5H276.847V7.324H272.871V26H284.743ZM308.58 26L301.384 7.324H296.4L289.176 26H293.712L294.888 22.836H302.896L304.044 26H308.58ZM301.804 19.336H295.98L298.892 11.3L301.804 19.336ZM321.305 26C327.157 26 331.217 22.304 331.217 16.676C331.217 11.048 327.157 7.324 321.305 7.324H313.941V26H321.305ZM321.305 22.5H317.917V10.824H321.305C325.141 10.824 327.157 13.372 327.157 16.676C327.157 19.84 325.001 22.5 321.305 22.5Z" fill="#262626"/>
<circle cx="360" cy="22" r="5" fill="#EE6C8A"/>
</svg>
