<svg width="369" height="13" viewBox="0 0 369 13" fill="none" xmlns="http://www.w3.org/2000/svg">
<path fill-rule="evenodd" clip-rule="evenodd" d="M357.746 11.2952C361.462 11.2952 363.347 9.16196 365.011 7.28243C365.436 6.79844 365.399 6.05603 364.923 5.62373C364.447 5.19144 363.717 5.22903 363.292 5.71301C361.757 7.44688 360.431 8.94582 357.746 8.94582C355.056 8.94582 353.734 7.44688 352.2 5.71301C350.536 3.83347 348.655 1.7002 344.94 1.7002C341.224 1.7002 339.338 3.83347 337.674 5.71301C336.14 7.44688 334.818 8.94582 332.129 8.94582C329.439 8.94582 328.117 7.44688 326.583 5.71301C324.919 3.83347 323.038 1.7002 319.318 1.7002C315.602 1.7002 313.716 3.83347 312.057 5.71301C310.523 7.44688 309.196 8.94582 306.511 8.94582C303.826 8.94582 302.5 7.44688 300.965 5.71301C299.302 3.83347 297.421 1.7002 293.705 1.7002C289.989 1.7002 288.104 3.83347 286.444 5.71301C284.91 7.44688 283.588 8.94582 280.899 8.94582C278.209 8.94582 276.887 7.44688 275.353 5.71301L275.524 5.90566C275.487 5.83988 275.44 5.7741 275.385 5.71301C273.721 3.83347 271.84 1.7002 268.12 1.7002C264.404 1.7002 262.519 3.83347 260.855 5.71301C259.32 7.44688 257.994 8.94582 255.309 8.94582C252.619 8.94582 251.297 7.44688 249.763 5.71301C248.099 3.83347 246.218 1.7002 242.503 1.7002C238.787 1.7002 236.901 3.83347 235.242 5.71301C233.708 7.44688 232.386 8.94582 229.696 8.94582C227.007 8.94582 225.685 7.44688 224.15 5.71301C222.487 3.83347 220.606 1.7002 216.89 1.7002C213.174 1.7002 211.289 3.83347 209.629 5.71301C208.095 7.44688 206.773 8.94582 204.084 8.94582C201.394 8.94582 200.072 7.44688 198.538 5.71301C196.874 3.83347 194.993 1.7002 191.277 1.7002C187.561 1.7002 185.676 3.83347 184.017 5.71301L183.998 5.73181C183.564 6.21579 183.601 6.9582 184.077 7.3905C184.553 7.82279 185.278 7.7852 185.708 7.30122L185.727 7.28243C187.261 5.54855 188.583 4.04962 191.273 4.04962C193.962 4.04962 195.284 5.54855 196.818 7.28243C198.482 9.16196 200.363 11.2952 204.079 11.2952C207.795 11.2952 209.68 9.16196 211.339 7.28243C212.874 5.54855 214.196 4.04962 216.885 4.04962C219.575 4.04962 220.897 5.54855 222.431 7.28243C224.095 9.16196 225.976 11.2952 229.692 11.2952C233.407 11.2952 235.293 9.16196 236.952 7.28243C238.486 5.54855 239.808 4.04962 242.498 4.04962C245.188 4.04962 246.51 5.54855 248.044 7.28243C249.708 9.16196 251.589 11.2952 255.304 11.2952C259.02 11.2952 260.906 9.16196 262.569 7.28243C264.104 5.54855 265.426 4.04962 268.115 4.04962C270.694 4.04962 272.016 5.42638 273.476 7.07098C273.513 7.13676 273.56 7.20254 273.615 7.26363L273.633 7.28243C275.297 9.16196 277.178 11.2952 280.894 11.2952C284.61 11.2952 286.495 9.16196 288.154 7.28243C289.689 5.54855 291.011 4.04962 293.7 4.04962C296.39 4.04962 297.712 5.54855 299.246 7.28243C300.91 9.16196 302.791 11.2952 306.507 11.2952C310.222 11.2952 312.108 9.16196 313.767 7.28243C315.301 5.54855 316.628 4.04962 319.313 4.04962C322.003 4.04962 323.324 5.54855 324.859 7.28243C326.523 9.16196 328.404 11.2952 332.119 11.2952C335.835 11.2952 337.721 9.16196 339.384 7.28243C340.919 5.54855 342.241 4.04962 344.93 4.04962C347.62 4.04962 348.942 5.54855 350.476 7.28243C352.149 9.16666 354.03 11.2952 357.746 11.2952Z" fill="#26C6D0" stroke="#26C6D0" stroke-width="3" stroke-miterlimit="10" stroke-linejoin="round"/>
<path fill-rule="evenodd" clip-rule="evenodd" d="M178.746 11.2952C182.462 11.2952 184.347 9.16196 186.011 7.28243C186.436 6.79844 186.399 6.05603 185.923 5.62373C185.447 5.19144 184.717 5.22903 184.292 5.71301C182.757 7.44688 181.431 8.94582 178.746 8.94582C176.056 8.94582 174.734 7.44688 173.2 5.71301C171.536 3.83347 169.655 1.7002 165.94 1.7002C162.224 1.7002 160.338 3.83347 158.674 5.71301C157.14 7.44688 155.818 8.94582 153.129 8.94582C150.439 8.94582 149.117 7.44688 147.583 5.71301C145.919 3.83347 144.038 1.7002 140.318 1.7002C136.602 1.7002 134.716 3.83347 133.057 5.71301C131.523 7.44688 130.196 8.94582 127.511 8.94582C124.826 8.94582 123.5 7.44688 121.965 5.71301C120.302 3.83347 118.421 1.7002 114.705 1.7002C110.989 1.7002 109.104 3.83347 107.444 5.71301C105.91 7.44688 104.588 8.94582 101.899 8.94582C99.2088 8.94582 97.887 7.44688 96.3527 5.71301L96.5237 5.90566C96.4867 5.83988 96.4405 5.7741 96.385 5.71301C94.7213 3.83347 92.8403 1.7002 89.1199 1.7002C85.4042 1.7002 83.5186 3.83347 81.8548 5.71301C80.3205 7.44688 78.9941 8.94582 76.309 8.94582C73.6192 8.94582 72.2974 7.44688 70.7631 5.71301C69.0993 3.83347 67.2183 1.7002 63.5026 1.7002C59.7869 1.7002 57.9013 3.83347 56.2421 5.71301C54.7078 7.44688 53.386 8.94582 50.6963 8.94582C48.0065 8.94582 46.6847 7.44688 45.1504 5.71301C43.4866 3.83347 41.6056 1.7002 37.8899 1.7002C34.1742 1.7002 32.2886 3.83347 30.6294 5.71301C29.0951 7.44688 27.7733 8.94582 25.0836 8.94582C22.3938 8.94582 21.072 7.44688 19.5377 5.71301C17.8739 3.83347 15.993 1.7002 12.2772 1.7002C8.56148 1.7002 6.67588 3.83347 5.01674 5.71301L4.99826 5.73181C4.56383 6.21579 4.6008 6.9582 5.07682 7.3905C5.55284 7.82279 6.27843 7.7852 6.70823 7.30122L6.72672 7.28243C8.26108 5.54855 9.58285 4.04962 12.2726 4.04962C14.9623 4.04962 16.2841 5.54855 17.8185 7.28243C19.4822 9.16196 21.3632 11.2952 25.0789 11.2952C28.7947 11.2952 30.6803 9.16196 32.3394 7.28243C33.8738 5.54855 35.1955 4.04962 37.8853 4.04962C40.575 4.04962 41.8968 5.54855 43.4312 7.28243C45.0949 9.16196 46.9759 11.2952 50.6916 11.2952C54.4074 11.2952 56.293 9.16196 57.9521 7.28243C59.4865 5.54855 60.8082 4.04962 63.498 4.04962C66.1877 4.04962 67.5095 5.54855 69.0439 7.28243C70.7076 9.16196 72.5886 11.2952 76.3043 11.2952C80.0201 11.2952 81.9057 9.16196 83.5694 7.28243C85.1038 5.54855 86.4256 4.04962 89.1153 4.04962C91.6941 4.04962 93.0159 5.42638 94.4763 7.07098C94.5133 7.13676 94.5595 7.20254 94.615 7.26363L94.6335 7.28243C96.2972 9.16196 98.1782 11.2952 101.894 11.2952C105.61 11.2952 107.495 9.16196 109.154 7.28243C110.689 5.54855 112.011 4.04962 114.7 4.04962C117.39 4.04962 118.712 5.54855 120.246 7.28243C121.91 9.16196 123.791 11.2952 127.507 11.2952C131.222 11.2952 133.108 9.16196 134.767 7.28243C136.301 5.54855 137.628 4.04962 140.313 4.04962C143.003 4.04962 144.324 5.54855 145.859 7.28243C147.523 9.16196 149.404 11.2952 153.119 11.2952C156.835 11.2952 158.721 9.16196 160.384 7.28243C161.919 5.54855 163.241 4.04962 165.93 4.04962C168.62 4.04962 169.942 5.54855 171.476 7.28243C173.149 9.16666 175.03 11.2952 178.746 11.2952Z" fill="#26C6D0" stroke="#26C6D0" stroke-width="3" stroke-miterlimit="10" stroke-linejoin="round"/>
</svg>
