<svg width="155" height="20" xmlns="http://www.w3.org/2000/svg" fill="none">
 <g>
  <title>Layer 1</title>
  <g id="svg_3">
   <path d="m19.404,18.956l-7.196,-18.676l-4.984,0l-7.224,18.676l4.536,0l1.176,-3.164l8.008,0l1.148,3.164l4.536,0zm-6.776,-6.664l-5.824,0l2.912,-8.036l2.912,8.036zm29.4145,6.664l5.32,-18.676l-4.48,0l-3.248,13.496l-3.528,-13.496l-3.108,0l-3.556,13.496l-3.276,-13.496l-4.452,0l5.348,18.676l4.228,0l3.248,-12.824l3.276,12.824l4.228,0zm27.0175,0l-7.1965,-18.676l-4.984,0l-7.224,18.676l4.536,0l1.176,-3.164l8.008,0l1.148,3.164l4.5365,0zm-6.7765,-6.664l-5.824,0l2.912,-8.036l2.912,8.036zm27.2575,6.664l-4.2,-7.112c2.016,-0.476 4.088,-2.24 4.088,-5.544c0,-3.472 -2.38,-6.02 -6.272,-6.02l-8.736,0l0,18.676l3.976,0l0,-6.636l2.912,0l3.668,6.636l4.564,0zm-6.972,-10.136l-4.172,0l0,-5.04l4.172,0c1.596,0 2.8,0.952 2.8,2.52c0,1.568 -1.204,2.52 -2.8,2.52zm20.844,10.136c5.852,0 9.912,-3.696 9.912,-9.324c0,-5.628 -4.06,-9.352 -9.912,-9.352l-7.364,0l0,18.676l7.364,0zm0,-3.5l-3.388,0l0,-11.676l3.388,0c3.836,0 5.852,2.548 5.852,5.852c0,3.164 -2.156,5.824 -5.852,5.824zm23.006,3.836c5.04,0 7.476,-2.576 7.476,-5.992c0,-6.972 -10.724,-4.984 -10.724,-7.952c0,-1.12 0.952,-1.876 2.66,-1.876c1.904,0 3.92,0.644 5.432,2.044l2.212,-2.912c-1.848,-1.708 -4.312,-2.604 -7.28,-2.604c-4.396,0 -7.084,2.576 -7.084,5.684c0,7.028 10.752,4.76 10.752,8.064c0,1.064 -1.064,2.072 -3.248,2.072c-2.576,0 -4.62,-1.148 -5.936,-2.52l-2.156,3.024c1.736,1.764 4.312,2.968 7.896,2.968z" fill="#262626" id="svg_1" stroke="null"/>
   <circle cx="150.14" cy="14.956" r="5" fill="#EE6C8A" id="svg_2" stroke="null"/>
  </g>
 </g>

</svg>