<svg width="185" height="13" viewBox="0 0 185 13" fill="none" xmlns="http://www.w3.org/2000/svg">
<path fill-rule="evenodd" clip-rule="evenodd" d="M175.746 11.2952C179.462 11.2952 181.347 9.16196 183.011 7.28243C183.436 6.79844 183.399 6.05603 182.923 5.62373C182.447 5.19144 181.717 5.22903 181.292 5.71301C179.757 7.44688 178.431 8.94582 175.746 8.94582C173.056 8.94582 171.734 7.44688 170.2 5.71301C168.536 3.83347 166.655 1.7002 162.94 1.7002C159.224 1.7002 157.338 3.83347 155.674 5.71301C154.14 7.44688 152.818 8.94582 150.129 8.94582C147.439 8.94582 146.117 7.44688 144.583 5.71301C142.919 3.83347 141.038 1.7002 137.318 1.7002C133.602 1.7002 131.716 3.83347 130.057 5.71301C128.523 7.44688 127.196 8.94582 124.511 8.94582C121.826 8.94582 120.5 7.44688 118.965 5.71301C117.302 3.83347 115.421 1.7002 111.705 1.7002C107.989 1.7002 106.104 3.83347 104.444 5.71301C102.91 7.44688 101.588 8.94582 98.8986 8.94582C96.2088 8.94582 94.887 7.44688 93.3527 5.71301L93.5237 5.90566C93.4867 5.83988 93.4405 5.7741 93.385 5.71301C91.7213 3.83347 89.8403 1.7002 86.1199 1.7002C82.4042 1.7002 80.5186 3.83347 78.8549 5.71301C77.3205 7.44688 75.9941 8.94582 73.309 8.94582C70.6192 8.94582 69.2975 7.44688 67.7631 5.71301C66.0993 3.83347 64.2184 1.7002 60.5026 1.7002C56.7869 1.7002 54.9013 3.83347 53.2421 5.71301C51.7078 7.44688 50.386 8.94582 47.6963 8.94582C45.0065 8.94582 43.6848 7.44688 42.1504 5.71301C40.4866 3.83347 38.6057 1.7002 34.8899 1.7002C31.1742 1.7002 29.2886 3.83347 27.6295 5.71301C26.0951 7.44688 24.7733 8.94582 22.0836 8.94582C19.3938 8.94582 18.0721 7.44688 16.5377 5.71301C14.8739 3.83347 12.993 1.7002 9.27723 1.7002C5.5615 1.7002 3.6759 3.83347 2.01676 5.71301L1.99827 5.73181C1.56384 6.21579 1.60082 6.9582 2.07684 7.3905C2.55286 7.82279 3.27844 7.7852 3.70825 7.30122L3.72674 7.28243C5.26109 5.54855 6.58286 4.04962 9.27261 4.04962C11.9624 4.04962 13.2841 5.54855 14.8185 7.28243C16.4822 9.16196 18.3632 11.2952 22.079 11.2952C25.7947 11.2952 27.6803 9.16196 29.3394 7.28243C30.8738 5.54855 32.1956 4.04962 34.8853 4.04962C37.5751 4.04962 38.8968 5.54855 40.4312 7.28243C42.0949 9.16196 43.9759 11.2952 47.6917 11.2952C51.4074 11.2952 53.293 9.16196 54.9521 7.28243C56.4865 5.54855 57.8083 4.04962 60.498 4.04962C63.1878 4.04962 64.5095 5.54855 66.0439 7.28243C67.7076 9.16196 69.5886 11.2952 73.3044 11.2952C77.0201 11.2952 78.9057 9.16196 80.5694 7.28243C82.1038 5.54855 83.4256 4.04962 86.1153 4.04962C88.6942 4.04962 90.0159 5.42638 91.4763 7.07098C91.5133 7.13676 91.5595 7.20254 91.615 7.26363L91.6335 7.28243C93.2972 9.16196 95.1782 11.2952 98.8939 11.2952C102.61 11.2952 104.495 9.16196 106.154 7.28243C107.689 5.54855 109.011 4.04962 111.7 4.04962C114.39 4.04962 115.712 5.54855 117.246 7.28243C118.91 9.16196 120.791 11.2952 124.507 11.2952C128.222 11.2952 130.108 9.16196 131.767 7.28243C133.301 5.54855 134.628 4.04962 137.313 4.04962C140.003 4.04962 141.325 5.54855 142.859 7.28243C144.523 9.16196 146.404 11.2952 150.119 11.2952C153.835 11.2952 155.721 9.16196 157.384 7.28243C158.919 5.54855 160.241 4.04962 162.93 4.04962C165.62 4.04962 166.942 5.54855 168.476 7.28243C170.149 9.16666 172.03 11.2952 175.746 11.2952Z" fill="#26C6D0" stroke="#26C6D0" stroke-width="3" stroke-miterlimit="10" stroke-linejoin="round"/>
</svg>
