<svg width="300" height="140" viewBox="0 0 300 140" fill="none" xmlns="http://www.w3.org/2000/svg">
<rect width="300" height="140" rx="1" fill="#26C6D0"/>
<path d="M39.896 74L44.008 63.328H41.416L38.472 71.536L35.512 63.328H32.92L37.048 74H39.896ZM49.4877 74V63.328H47.2157V74H49.4877ZM61.3806 74V72H56.1006V69.584H61.2686V67.584H56.1006V65.328H61.3806V63.328H53.8286V74H61.3806ZM75.9549 74L78.9949 63.328H76.4349L74.5789 71.04L72.5629 63.328H70.7869L68.7549 71.04L66.8829 63.328H64.3389L67.3949 74H69.8109L71.6669 66.672L73.5389 74H75.9549ZM90.8766 74V70.208H93.5966C95.9006 70.208 97.1806 68.624 97.1806 66.768C97.1806 64.896 95.9166 63.328 93.5966 63.328H88.6046V74H90.8766ZM93.2926 68.208H90.8766V65.328H93.2926C94.1886 65.328 94.8606 65.872 94.8606 66.768C94.8606 67.648 94.1886 68.208 93.2926 68.208ZM109.451 74L107.051 69.936C108.203 69.664 109.387 68.656 109.387 66.768C109.387 64.784 108.027 63.328 105.803 63.328H100.811V74H103.083V70.208H104.747L106.843 74H109.451ZM105.467 68.208H103.083V65.328H105.467C106.379 65.328 107.067 65.872 107.067 66.768C107.067 67.664 106.379 68.208 105.467 68.208ZM118.371 74.192C121.603 74.192 123.955 71.888 123.955 68.672C123.955 65.456 121.603 63.152 118.371 63.152C115.155 63.152 112.803 65.456 112.803 68.672C112.803 71.888 115.155 74.192 118.371 74.192ZM118.371 72.176C116.403 72.176 115.139 70.656 115.139 68.672C115.139 66.672 116.403 65.168 118.371 65.168C120.339 65.168 121.619 66.672 121.619 68.672C121.619 70.656 120.339 72.176 118.371 72.176ZM129.363 74.192C131.555 74.192 133.123 73.024 133.123 70.496V63.328H130.851V70.464C130.851 71.504 130.195 72.176 129.187 72.176C128.451 72.176 127.907 71.808 127.491 71.408L126.499 73.152C127.267 73.904 128.291 74.192 129.363 74.192ZM145.014 74V72H139.734V69.584H144.902V67.584H139.734V65.328H145.014V63.328H137.462V74H145.014ZM154.181 74.192C156.533 74.192 157.877 72.896 158.645 71.568L156.693 70.624C156.245 71.504 155.285 72.176 154.181 72.176C152.245 72.176 150.837 70.688 150.837 68.672C150.837 66.656 152.245 65.168 154.181 65.168C155.285 65.168 156.245 65.856 156.693 66.72L158.645 65.76C157.893 64.432 156.533 63.152 154.181 63.152C150.981 63.152 148.501 65.392 148.501 68.672C148.501 71.952 150.981 74.192 154.181 74.192ZM166.971 74V65.328H170.075V63.328H161.563V65.328H164.683V74H166.971Z" fill="white"/>
<path d="M197 70H267" stroke="white" stroke-width="2" stroke-linecap="square"/>
</svg>
