<svg width="56" height="56" viewBox="0 0 56 56" fill="none" xmlns="http://www.w3.org/2000/svg">
<circle cx="26.5" cy="28.5" r="26.5" fill="#26C6D0"/>
<path d="M22.0842 16.0004C21.7295 15.9926 21.3812 16.0954 21.0877 16.2948C20.7942 16.4941 20.57 16.78 20.4465 17.1126C20.3229 17.4452 20.306 17.808 20.3982 18.1506C20.4903 18.4932 20.687 18.7985 20.9607 19.0242L31.4058 27.9723L20.9607 36.9173C20.7714 37.0565 20.6128 37.2332 20.4949 37.4365C20.377 37.6398 20.3024 37.8654 20.2757 38.0988C20.2489 38.3323 20.2707 38.5688 20.3396 38.7935C20.4086 39.0181 20.5231 39.2262 20.6762 39.4046C20.8292 39.5829 21.0174 39.7276 21.229 39.8298C21.4406 39.9321 21.6711 39.9895 21.9059 39.9986C22.1407 40.0076 22.3749 39.9682 22.5938 39.8826C22.8126 39.797 23.0114 39.6671 23.1778 39.5011L35.1365 29.2692C35.3243 29.1089 35.4751 28.91 35.5785 28.6858C35.6819 28.4616 35.7354 28.2176 35.7354 27.9708C35.7354 27.7239 35.6819 27.4799 35.5785 27.2557C35.4751 27.0315 35.3243 26.8324 35.1365 26.6721L23.1778 16.4304C22.8757 16.1621 22.4882 16.0095 22.0842 16V16.0004Z" fill="white"/>
</svg>
