<svg width="56" height="56" viewBox="0 0 56 56" fill="none" xmlns="http://www.w3.org/2000/svg">
<circle cx="26.5" cy="28.5" r="26.5" fill="#26C6D0"/>
<path d="M30.9158 39.9995C31.2705 40.0073 31.6188 39.9044 31.9123 39.7051C32.2058 39.5058 32.43 39.2199 32.5535 38.8873C32.6771 38.5547 32.694 38.1919 32.6018 37.8493C32.5097 37.5067 32.313 37.2014 32.0393 36.9757L21.5942 28.0276L32.0393 19.0825C32.2287 18.9434 32.3872 18.7667 32.5051 18.5633C32.623 18.36 32.6976 18.1345 32.7244 17.901C32.7511 17.6675 32.7293 17.4311 32.6604 17.2064C32.5914 16.9817 32.4769 16.7736 32.3238 16.5953C32.1708 16.4169 31.9826 16.2723 31.771 16.17C31.5594 16.0678 31.3289 16.0104 31.0941 16.0013C30.8593 15.9922 30.6251 16.0316 30.4062 16.1173C30.1874 16.2029 29.9886 16.3328 29.8222 16.4988L17.8635 26.7307C17.6757 26.8909 17.5249 27.0899 17.4215 27.314C17.3181 27.5382 17.2646 27.7822 17.2646 28.0291C17.2646 28.276 17.3181 28.52 17.4215 28.7442C17.5249 28.9684 17.6757 29.1675 17.8635 29.3278L29.8222 39.5695C30.1243 39.8378 30.5118 39.9904 30.9158 39.9999L30.9158 39.9995Z" fill="white"/>
</svg>
