<svg width="495" height="13" viewBox="0 0 495 13" fill="none" xmlns="http://www.w3.org/2000/svg">
<path fill-rule="evenodd" clip-rule="evenodd" d="M467.746 11.2952C471.462 11.2952 473.347 9.16196 475.011 7.28243C475.436 6.79844 475.399 6.05603 474.923 5.62373C474.447 5.19144 473.717 5.22903 473.292 5.71301C471.757 7.44688 470.431 8.94582 467.746 8.94582C465.056 8.94582 463.734 7.44688 462.2 5.71301C460.536 3.83347 458.655 1.7002 454.94 1.7002C451.224 1.7002 449.338 3.83347 447.675 5.71301C446.14 7.44688 444.818 8.94582 442.129 8.94582C439.439 8.94582 438.117 7.44688 436.583 5.71301C434.919 3.83347 433.038 1.7002 429.318 1.7002C425.602 1.7002 423.716 3.83347 422.057 5.71301C420.523 7.44688 419.196 8.94582 416.511 8.94582C413.826 8.94582 412.5 7.44688 410.965 5.71301C409.302 3.83347 407.421 1.7002 403.705 1.7002C399.989 1.7002 398.104 3.83347 396.444 5.71301C394.91 7.44688 393.588 8.94582 390.899 8.94582C388.209 8.94582 386.887 7.44688 385.353 5.71301L385.524 5.90566C385.487 5.83988 385.441 5.7741 385.385 5.71301C383.721 3.83347 381.84 1.7002 378.12 1.7002C374.404 1.7002 372.519 3.83347 370.855 5.71301C369.321 7.44688 367.994 8.94582 365.309 8.94582C362.619 8.94582 361.298 7.44688 359.763 5.71301C358.099 3.83347 356.218 1.7002 352.503 1.7002C348.787 1.7002 346.901 3.83347 345.242 5.71301C343.708 7.44688 342.386 8.94582 339.696 8.94582C337.007 8.94582 335.685 7.44688 334.15 5.71301C332.487 3.83347 330.606 1.7002 326.89 1.7002C323.174 1.7002 321.289 3.83347 319.63 5.71301C318.095 7.44688 316.773 8.94582 314.084 8.94582C311.394 8.94582 310.072 7.44688 308.538 5.71301C306.874 3.83347 304.993 1.7002 301.277 1.7002C297.562 1.7002 295.676 3.83347 294.017 5.71301L293.998 5.73181C293.564 6.21579 293.601 6.9582 294.077 7.3905C294.553 7.82279 295.279 7.7852 295.708 7.30122L295.727 7.28243C297.261 5.54855 298.583 4.04962 301.273 4.04962C303.962 4.04962 305.284 5.54855 306.819 7.28243C308.482 9.16196 310.363 11.2952 314.079 11.2952C317.795 11.2952 319.68 9.16196 321.339 7.28243C322.874 5.54855 324.196 4.04962 326.885 4.04962C329.575 4.04962 330.897 5.54855 332.431 7.28243C334.095 9.16196 335.976 11.2952 339.692 11.2952C343.407 11.2952 345.293 9.16196 346.952 7.28243C348.487 5.54855 349.808 4.04962 352.498 4.04962C355.188 4.04962 356.51 5.54855 358.044 7.28243C359.708 9.16196 361.589 11.2952 365.304 11.2952C369.02 11.2952 370.906 9.16196 372.57 7.28243C374.104 5.54855 375.426 4.04962 378.115 4.04962C380.694 4.04962 382.016 5.42638 383.476 7.07098C383.513 7.13676 383.56 7.20254 383.615 7.26363L383.634 7.28243C385.297 9.16196 387.178 11.2952 390.894 11.2952C394.61 11.2952 396.495 9.16196 398.154 7.28243C399.689 5.54855 401.011 4.04962 403.7 4.04962C406.39 4.04962 407.712 5.54855 409.246 7.28243C410.91 9.16196 412.791 11.2952 416.507 11.2952C420.222 11.2952 422.108 9.16196 423.767 7.28243C425.302 5.54855 426.628 4.04962 429.313 4.04962C432.003 4.04962 433.325 5.54855 434.859 7.28243C436.523 9.16196 438.404 11.2952 442.119 11.2952C445.835 11.2952 447.721 9.16196 449.385 7.28243C450.919 5.54855 452.241 4.04962 454.93 4.04962C457.62 4.04962 458.942 5.54855 460.476 7.28243C462.149 9.16666 464.03 11.2952 467.746 11.2952Z" fill="#26C6D0" stroke="#26C6D0" stroke-width="3" stroke-miterlimit="10" stroke-linejoin="round"/>
<path fill-rule="evenodd" clip-rule="evenodd" d="M288.746 11.2952C292.462 11.2952 294.347 9.16196 296.011 7.28243C296.436 6.79844 296.399 6.05603 295.923 5.62373C295.447 5.19144 294.717 5.22903 294.292 5.71301C292.757 7.44688 291.431 8.94582 288.746 8.94582C286.056 8.94582 284.734 7.44688 283.2 5.71301C281.536 3.83347 279.655 1.7002 275.94 1.7002C272.224 1.7002 270.338 3.83347 268.675 5.71301C267.14 7.44688 265.818 8.94582 263.129 8.94582C260.439 8.94582 259.117 7.44688 257.583 5.71301C255.919 3.83347 254.038 1.7002 250.318 1.7002C246.602 1.7002 244.716 3.83347 243.057 5.71301C241.523 7.44688 240.196 8.94582 237.511 8.94582C234.826 8.94582 233.5 7.44688 231.965 5.71301C230.302 3.83347 228.421 1.7002 224.705 1.7002C220.989 1.7002 219.104 3.83347 217.444 5.71301C215.91 7.44688 214.588 8.94582 211.899 8.94582C209.209 8.94582 207.887 7.44688 206.353 5.71301L206.524 5.90566C206.487 5.83988 206.441 5.7741 206.385 5.71301C204.721 3.83347 202.84 1.7002 199.12 1.7002C195.404 1.7002 193.519 3.83347 191.855 5.71301C190.321 7.44688 188.994 8.94582 186.309 8.94582C183.619 8.94582 182.298 7.44688 180.763 5.71301C179.099 3.83347 177.218 1.7002 173.503 1.7002C169.787 1.7002 167.901 3.83347 166.242 5.71301C164.708 7.44688 163.386 8.94582 160.696 8.94582C158.007 8.94582 156.685 7.44688 155.15 5.71301C153.487 3.83347 151.606 1.7002 147.89 1.7002C144.174 1.7002 142.289 3.83347 140.63 5.71301C139.095 7.44688 137.773 8.94582 135.084 8.94582C132.394 8.94582 131.072 7.44688 129.538 5.71301C127.874 3.83347 125.993 1.7002 122.277 1.7002C118.562 1.7002 116.676 3.83347 115.017 5.71301L114.998 5.73181C114.564 6.21579 114.601 6.9582 115.077 7.3905C115.553 7.82279 116.279 7.7852 116.708 7.30122L116.727 7.28243C118.261 5.54855 119.583 4.04962 122.273 4.04962C124.962 4.04962 126.284 5.54855 127.819 7.28243C129.482 9.16196 131.363 11.2952 135.079 11.2952C138.795 11.2952 140.68 9.16196 142.339 7.28243C143.874 5.54855 145.196 4.04962 147.885 4.04962C150.575 4.04962 151.897 5.54855 153.431 7.28243C155.095 9.16196 156.976 11.2952 160.692 11.2952C164.407 11.2952 166.293 9.16196 167.952 7.28243C169.487 5.54855 170.808 4.04962 173.498 4.04962C176.188 4.04962 177.51 5.54855 179.044 7.28243C180.708 9.16196 182.589 11.2952 186.304 11.2952C190.02 11.2952 191.906 9.16196 193.57 7.28243C195.104 5.54855 196.426 4.04962 199.115 4.04962C201.694 4.04962 203.016 5.42638 204.476 7.07098C204.513 7.13676 204.56 7.20254 204.615 7.26363L204.634 7.28243C206.297 9.16196 208.178 11.2952 211.894 11.2952C215.61 11.2952 217.495 9.16196 219.154 7.28243C220.689 5.54855 222.011 4.04962 224.7 4.04962C227.39 4.04962 228.712 5.54855 230.246 7.28243C231.91 9.16196 233.791 11.2952 237.507 11.2952C241.222 11.2952 243.108 9.16196 244.767 7.28243C246.302 5.54855 247.628 4.04962 250.313 4.04962C253.003 4.04962 254.325 5.54855 255.859 7.28243C257.523 9.16196 259.404 11.2952 263.119 11.2952C266.835 11.2952 268.721 9.16196 270.385 7.28243C271.919 5.54855 273.241 4.04962 275.93 4.04962C278.62 4.04962 279.942 5.54855 281.476 7.28243C283.149 9.16666 285.03 11.2952 288.746 11.2952Z" fill="#26C6D0" stroke="#26C6D0" stroke-width="3" stroke-miterlimit="10" stroke-linejoin="round"/>
<path fill-rule="evenodd" clip-rule="evenodd" d="M185.746 11.2952C189.462 11.2952 191.347 9.16196 193.011 7.28243C193.436 6.79844 193.399 6.05603 192.923 5.62373C192.447 5.19144 191.717 5.22903 191.292 5.71301C189.757 7.44688 188.431 8.94582 185.746 8.94582C183.056 8.94582 181.734 7.44688 180.2 5.71301C178.536 3.83347 176.655 1.7002 172.94 1.7002C169.224 1.7002 167.338 3.83347 165.675 5.71301C164.14 7.44688 162.818 8.94582 160.129 8.94582C157.439 8.94582 156.117 7.44688 154.583 5.71301C152.919 3.83347 151.038 1.7002 147.318 1.7002C143.602 1.7002 141.716 3.83347 140.057 5.71301C138.523 7.44688 137.196 8.94582 134.511 8.94582C131.826 8.94582 130.5 7.44688 128.965 5.71301C127.302 3.83347 125.421 1.7002 121.705 1.7002C117.989 1.7002 116.104 3.83347 114.444 5.71301C112.91 7.44688 111.588 8.94582 108.899 8.94582C106.209 8.94582 104.887 7.44688 103.353 5.71301L103.524 5.90566C103.487 5.83988 103.441 5.7741 103.385 5.71301C101.721 3.83347 99.8404 1.7002 96.12 1.7002C92.4043 1.7002 90.5187 3.83347 88.8549 5.71301C87.3205 7.44688 85.9942 8.94582 83.309 8.94582C80.6193 8.94582 79.2975 7.44688 77.7632 5.71301C76.0994 3.83347 74.2184 1.7002 70.5027 1.7002C66.7869 1.7002 64.9014 3.83347 63.2422 5.71301C61.7079 7.44688 60.3861 8.94582 57.6963 8.94582C55.0066 8.94582 53.6848 7.44688 52.1505 5.71301C50.4867 3.83347 48.6057 1.7002 44.89 1.7002C41.1743 1.7002 39.2887 3.83347 37.6295 5.71301C36.0952 7.44688 34.7734 8.94582 32.0836 8.94582C29.3939 8.94582 28.0721 7.44688 26.5378 5.71301C24.874 3.83347 22.993 1.7002 19.2773 1.7002C15.5616 1.7002 13.676 3.83347 12.0168 5.71301L11.9983 5.73181C11.5639 6.21579 11.6009 6.9582 12.0769 7.3905C12.5529 7.82279 13.2785 7.7852 13.7083 7.30122L13.7268 7.28243C15.2612 5.54855 16.5829 4.04962 19.2727 4.04962C21.9624 4.04962 23.2842 5.54855 24.8185 7.28243C26.4823 9.16196 28.3633 11.2952 32.079 11.2952C35.7948 11.2952 37.6804 9.16196 39.3395 7.28243C40.8739 5.54855 42.1956 4.04962 44.8854 4.04962C47.5751 4.04962 48.8969 5.54855 50.4312 7.28243C52.095 9.16196 53.976 11.2952 57.6917 11.2952C61.4075 11.2952 63.293 9.16196 64.9522 7.28243C66.4865 5.54855 67.8083 4.04962 70.4981 4.04962C73.1878 4.04962 74.5096 5.54855 76.0439 7.28243C77.7077 9.16196 79.5887 11.2952 83.3044 11.2952C87.0201 11.2952 88.9057 9.16196 90.5695 7.28243C92.1039 5.54855 93.4256 4.04962 96.1154 4.04962C98.6942 4.04962 100.016 5.42638 101.476 7.07098C101.513 7.13676 101.56 7.20254 101.615 7.26363L101.634 7.28243C103.297 9.16196 105.178 11.2952 108.894 11.2952C112.61 11.2952 114.495 9.16196 116.154 7.28243C117.689 5.54855 119.011 4.04962 121.7 4.04962C124.39 4.04962 125.712 5.54855 127.246 7.28243C128.91 9.16196 130.791 11.2952 134.507 11.2952C138.222 11.2952 140.108 9.16196 141.767 7.28243C143.302 5.54855 144.628 4.04962 147.313 4.04962C150.003 4.04962 151.325 5.54855 152.859 7.28243C154.523 9.16196 156.404 11.2952 160.119 11.2952C163.835 11.2952 165.721 9.16196 167.385 7.28243C168.919 5.54855 170.241 4.04962 172.93 4.04962C175.62 4.04962 176.942 5.54855 178.476 7.28243C180.149 9.16666 182.03 11.2952 185.746 11.2952Z" fill="#26C6D0" stroke="#26C6D0" stroke-width="3" stroke-miterlimit="10" stroke-linejoin="round"/>
</svg>
