<svg width="448" height="39" viewBox="0 0 448 39" fill="none" xmlns="http://www.w3.org/2000/svg">
<g clip-path="url(#clip0_2_370)">
<path d="M10.696 26.336C16.352 26.336 20.468 22.304 20.468 16.676C20.468 11.048 16.352 7.016 10.696 7.016C5.068 7.016 0.952 11.048 0.952 16.676C0.952 22.304 5.068 26.336 10.696 26.336ZM10.696 22.808C7.252 22.808 5.04 20.148 5.04 16.676C5.04 13.176 7.252 10.544 10.696 10.544C14.14 10.544 16.38 13.176 16.38 16.676C16.38 20.148 14.14 22.808 10.696 22.808ZM35.3225 26.336C41.0065 26.336 43.7505 23.172 43.7505 18.524V7.324H39.6905V18.412C39.6905 21.016 38.2065 22.808 35.3225 22.808C32.4385 22.808 30.9265 21.016 30.9265 18.412V7.324H26.8945V18.552C26.8945 23.144 29.6385 26.336 35.3225 26.336ZM66.186 26L61.986 18.888C64.002 18.412 66.074 16.648 66.074 13.344C66.074 9.872 63.694 7.324 59.802 7.324H51.066V26H55.042V19.364H57.954L61.622 26H66.186ZM59.214 15.864H55.042V10.824H59.214C60.81 10.824 62.014 11.776 62.014 13.344C62.014 14.912 60.81 15.864 59.214 15.864ZM93.631 26C97.187 26 99.063 23.76 99.063 20.96C99.063 18.608 97.467 16.676 95.479 16.368C97.243 16.004 98.699 14.436 98.699 12.084C98.699 9.592 96.879 7.324 93.323 7.324H83.495V26H93.631ZM92.455 14.8H87.471V10.74H92.455C93.799 10.74 94.639 11.608 94.639 12.784C94.639 13.96 93.799 14.8 92.455 14.8ZM92.595 22.556H87.471V18.216H92.595C94.163 18.216 95.003 19.224 95.003 20.4C95.003 21.744 94.107 22.556 92.595 22.556ZM120.818 26L116.618 18.888C118.634 18.412 120.706 16.648 120.706 13.344C120.706 9.872 118.326 7.324 114.434 7.324H105.698V26H109.674V19.364H112.586L116.254 26H120.818ZM113.846 15.864H109.674V10.824H113.846C115.442 10.824 116.646 11.776 116.646 13.344C116.646 14.912 115.442 15.864 113.846 15.864ZM144.742 26L137.546 7.324H132.562L125.338 26H129.874L131.05 22.836H139.058L140.206 26H144.742ZM137.966 19.336H132.142L135.054 11.3L137.966 19.336ZM166.819 26V7.324H162.843V19.056L154.191 7.324H150.103V26H154.079V13.82L162.983 26H166.819ZM181.502 26C187.354 26 191.414 22.304 191.414 16.676C191.414 11.048 187.354 7.324 181.502 7.324H174.138V26H181.502ZM181.502 22.5H178.114V10.824H181.502C185.338 10.824 187.354 13.372 187.354 16.676C187.354 19.84 185.198 22.5 181.502 22.5ZM221.889 26V22.5H212.649V18.272H221.693V14.772H212.649V10.824H221.889V7.324H208.673V26H221.889ZM245.573 26L238.797 16.396L245.153 7.324H240.365L236.137 13.708L231.853 7.324H227.121L233.477 16.424L226.701 26H231.433L236.137 19.168L240.813 26H245.573ZM254.949 26V19.364H259.709C263.741 19.364 265.981 16.592 265.981 13.344C265.981 10.068 263.769 7.324 259.709 7.324H250.973V26H254.949ZM259.177 15.864H254.949V10.824H259.177C260.745 10.824 261.921 11.776 261.921 13.344C261.921 14.884 260.745 15.864 259.177 15.864ZM285.298 26V22.5H276.058V18.272H285.102V14.772H276.058V10.824H285.298V7.324H272.082V26H285.298ZM307.162 26L302.962 18.888C304.978 18.412 307.05 16.648 307.05 13.344C307.05 9.872 304.67 7.324 300.778 7.324H292.042V26H296.018V19.364H298.93L302.598 26H307.162ZM300.19 15.864H296.018V10.824H300.19C301.786 10.824 302.99 11.776 302.99 13.344C302.99 14.912 301.786 15.864 300.19 15.864ZM317.647 26V7.324H313.671V26H317.647ZM338.207 26V22.5H328.967V18.272H338.011V14.772H328.967V10.824H338.207V7.324H324.991V26H338.207ZM361.667 26V7.324H357.691V19.056L349.039 7.324H344.951V26H348.927V13.82L357.831 26H361.667ZM378.03 26.336C382.146 26.336 384.498 24.068 385.842 21.744L382.426 20.092C381.642 21.632 379.962 22.808 378.03 22.808C374.642 22.808 372.178 20.204 372.178 16.676C372.178 13.148 374.642 10.544 378.03 10.544C379.962 10.544 381.642 11.748 382.426 13.26L385.842 11.58C384.526 9.256 382.146 7.016 378.03 7.016C372.43 7.016 368.09 10.936 368.09 16.676C368.09 22.416 372.43 26.336 378.03 26.336ZM405.061 26V22.5H395.821V18.272H404.865V14.772H395.821V10.824H405.061V7.324H391.845V26H405.061Z" fill="#262626"/>
<circle cx="440.726" cy="22" r="5" fill="#EE6C8A"/>
</g>
<defs>
<clipPath id="clip0_2_370">
<rect width="448" height="39" fill="white"/>
</clipPath>
</defs>
</svg>
