<svg width="90" height="64" viewBox="0 0 90 64" fill="none" xmlns="http://www.w3.org/2000/svg">
<path d="M71.1973 23.8799C71.016 21.9203 71.1547 16.5933 76.2578 9.18569C76.6438 8.62671 76.5738 7.87282 76.0944 7.39356C74.0139 5.31302 72.7257 4.00014 71.8222 3.08144C70.6342 1.8701 70.0918 1.31814 69.298 0.598424C68.768 0.121986 67.966 0.11369 67.4304 0.580706C58.5356 8.32056 48.6561 24.3138 50.0857 43.908C50.9234 55.4133 59.3156 63.7644 70.0397 63.7644C81.0451 63.7644 89.999 54.8119 89.999 43.8063C89.999 33.1894 81.666 24.4827 71.1973 23.8799ZM70.0397 60.9519C60.8303 60.9519 53.6192 53.6981 52.89 43.7048C52.89 43.7048 52.89 43.7048 52.89 43.7034C51.2818 21.6662 64.3816 7.35236 68.3395 3.5621C68.7254 3.94249 69.1662 4.3901 69.8158 5.05202C70.5985 5.84852 71.6698 6.93892 73.2902 8.56497C67.0953 18.1093 68.264 24.9098 68.7761 25.8849C69.0193 26.3477 69.5178 26.6595 70.0397 26.6595C79.4947 26.6595 87.1865 34.3512 87.1865 43.8063C87.1865 53.2601 79.4947 60.9519 70.0397 60.9519Z" fill="white"/>
<path d="M21.2535 23.8798C21.0709 21.9256 21.2054 16.6027 26.3141 9.18558C26.6987 8.6266 26.6299 7.87271 26.1507 7.39346C24.0742 5.31699 22.7875 4.00552 21.8852 3.08682C20.6933 1.8728 20.1493 1.3193 19.3557 0.598317C18.8255 0.121879 18.0235 0.114989 17.488 0.579192C8.59321 8.31905 -1.28767 24.3097 0.139115 43.9079V43.9093C0.97963 55.4132 9.37312 63.7643 20.0972 63.7643C31.1028 63.7643 40.0566 54.8118 40.0566 43.8062C40.0566 33.188 31.7235 24.48 21.2535 23.8798ZM20.0972 60.9518C10.8893 60.9518 3.67401 53.698 2.94346 43.7033V43.7047C1.33949 21.662 14.4393 7.35085 18.397 3.56199C18.7843 3.94238 19.2266 4.3928 19.8775 5.05613C20.6588 5.85263 21.7287 6.94163 23.3465 8.56486C17.1515 18.1106 18.3202 24.9097 18.8324 25.8834C19.0755 26.3462 19.5753 26.6594 20.0972 26.6594C29.5524 26.6594 37.2441 34.3511 37.2441 43.8062C37.2441 53.26 29.5524 60.9518 20.0972 60.9518Z" fill="white"/>
</svg>
