<svg width="120" height="54" viewBox="0 0 120 54" fill="none" xmlns="http://www.w3.org/2000/svg">
<g clip-path="url(#clip0_141_705)">
<path d="M119.902 6.16606C120.035 5.82413 120.028 5.44287 119.883 5.10617C119.737 4.76946 119.465 4.50488 119.126 4.37064C118.787 4.2364 118.409 4.24348 118.076 4.39034C117.742 4.5372 117.48 4.8118 117.347 5.15374L112.818 16.7724C109.463 15.9047 105.971 17.0247 103.485 19.8494C102.061 21.474 100.679 23.8987 100.679 26.188L100.633 26.2403C100.405 26.5726 98.346 29.4557 96.5313 28.2988C96.0067 27.9634 96.3605 26.6895 96.7692 25.4187C96.8302 25.2218 96.8912 25.0372 96.943 24.8587C96.9674 24.7757 96.9918 24.6926 97.0162 24.6033C97.1068 24.2518 97.0568 23.8785 96.8771 23.5638C96.6974 23.2491 96.4023 23.0183 96.0555 22.921C95.7086 22.8237 95.3378 22.8678 95.0229 23.0438C94.708 23.2198 94.4742 23.5136 94.372 23.8618C93.826 25.8495 92.112 28.708 89.6386 28.4219C89.3599 28.405 89.0899 28.3182 88.8529 28.1693C88.6159 28.0205 88.4194 27.8143 88.2814 27.5695C87.8117 26.7695 87.7873 25.471 88.2204 24.4156C89.5379 21.2125 92.7738 19.7355 95.9152 20.9048C96.0844 20.9676 96.2643 20.9962 96.4444 20.9889C96.6246 20.9817 96.8016 20.9387 96.9653 20.8624C97.129 20.7861 97.2762 20.678 97.3985 20.5443C97.5208 20.4107 97.6158 20.254 97.678 20.0833C97.7403 19.9125 97.7687 19.7311 97.7614 19.5493C97.7542 19.3676 97.7116 19.189 97.636 19.0239C97.5604 18.8587 97.4532 18.7102 97.3207 18.5868C97.1882 18.4634 97.0329 18.3676 96.8637 18.3048C92.2889 16.6063 87.5891 18.7294 85.686 23.3541C85.1128 24.7536 85.0152 26.3051 85.4084 27.7665C85.3885 27.7744 85.3692 27.7837 85.3505 27.7942C84.6909 28.1781 83.958 28.4162 83.2003 28.4926C82.1268 28.5973 80.8824 28.185 80.5835 27.0465C80.2206 25.6557 80.4981 24.0218 80.8489 22.6525C81.1721 21.3971 83.2217 15.837 83.3376 15.8493C85.7393 16.1139 88.1668 15.7039 90.3523 14.6647C92.2859 13.757 95.3083 11.2523 96.0463 8.46764C96.2281 7.84927 96.2676 7.1972 96.1619 6.56108C96.0562 5.92497 95.8081 5.32157 95.4364 4.79681C93.9572 2.70446 90.8616 2.78138 88.6108 3.73832C84.8869 5.31989 82.9258 8.96919 81.5503 12.6616C80.101 12.2108 78.7399 11.5102 77.5276 10.5908C77.3826 10.4827 77.2179 10.4045 77.043 10.3606C76.868 10.3167 76.6862 10.308 76.5079 10.335C76.3296 10.362 76.1584 10.4242 76.0039 10.5179C75.8495 10.6117 75.7148 10.7353 75.6077 10.8815C75.5005 11.0278 75.423 11.1939 75.3795 11.3704C75.336 11.547 75.3274 11.7304 75.3541 11.9102C75.3809 12.0901 75.4425 12.2629 75.5355 12.4187C75.6284 12.5746 75.7509 12.7104 75.8959 12.8185C77.3304 13.9024 78.9358 14.7346 80.6445 15.2801C80.551 15.5693 80.4595 15.8555 80.37 16.1386L80.3182 16.2986C80.1443 16.8309 79.3178 18.7755 78.409 20.9571C77.9283 22.1718 77.3721 23.3547 76.7437 24.4987C75.6763 26.2649 73.7274 28.2896 72.2269 28.5634C72.011 28.612 71.7868 28.6095 71.572 28.5561C71.3572 28.5028 71.1575 28.3999 70.9887 28.2557C70.5403 27.9049 71.0801 26.1788 71.3394 25.348C71.4156 25.1018 71.4888 24.871 71.5498 24.6556C71.5484 24.6403 71.5484 24.6248 71.5498 24.6095C71.5512 24.6003 71.5512 24.591 71.5498 24.5818C71.6404 24.2303 71.5904 23.857 71.4107 23.5423C71.231 23.2276 70.9359 22.9967 70.5891 22.8994C70.2422 22.8022 69.8714 22.8463 69.5565 23.0223C69.2416 23.1982 69.0078 23.492 68.9056 23.8402C68.3536 25.828 66.6426 28.6711 64.1752 28.388C63.8966 28.3711 63.6265 28.2843 63.3895 28.1355C63.1525 27.9866 62.9561 27.7805 62.818 27.5357C62.3484 26.7357 62.324 25.4372 62.7571 24.3818C64.1143 21.0833 67.0269 19.7048 70.1469 20.871C70.4886 20.9979 70.8664 20.9826 71.197 20.8285C71.5275 20.6745 71.7839 20.3942 71.9097 20.0494C72.0355 19.7046 72.0204 19.3235 71.8676 18.99C71.7149 18.6565 71.4371 18.3978 71.0954 18.2709C66.6029 16.6001 62.1318 18.6771 60.2226 23.3202C59.4571 25.1849 59.5455 27.3911 60.4513 28.9419C60.8074 29.5552 61.3028 30.0745 61.8966 30.457C62.4905 30.8395 63.1659 31.0742 63.8672 31.1419C64.7105 31.2317 65.563 31.1387 66.3678 30.8691C67.1725 30.5995 67.9109 30.1596 68.5335 29.5788C68.7287 29.9059 68.9832 30.193 69.2838 30.425C70.0247 31.0231 70.9455 31.3486 71.8945 31.3481C72.1655 31.3475 72.436 31.3228 72.7027 31.2742C74.8894 30.8712 76.762 29.0004 77.9057 27.5819C78.0796 28.5088 78.5589 29.3492 79.266 29.9665C80.2481 30.8305 81.5166 31.2896 82.8191 31.2527C84.1973 31.2354 85.5476 30.858 86.7381 30.1573C86.7735 30.1438 86.8081 30.1284 86.8419 30.1111C87.5423 30.7149 88.4081 31.0894 89.3244 31.185C90.1727 31.2751 91.0302 31.1802 91.839 30.9068C92.6478 30.6334 93.3889 30.1879 94.0121 29.6004C94.2752 30.0255 94.6322 30.3836 95.0551 30.6465C95.7757 31.1041 96.6101 31.3463 97.4615 31.345C98.7882 31.345 100.292 30.7635 101.75 29.2342C102.176 29.7382 102.694 30.1559 103.275 30.465C103.972 30.8431 104.752 31.0408 105.544 31.0404C106.199 31.0346 106.849 30.9117 107.462 30.6773C108.41 30.3082 109.279 29.7587 110.021 29.0588C110.17 29.4176 110.366 29.7549 110.603 30.0619C110.931 30.4721 111.341 30.8079 111.806 31.047C112.271 31.2862 112.781 31.4234 113.302 31.4496C113.446 31.4496 113.586 31.465 113.723 31.465C117.365 31.465 119.475 28.028 119.567 27.8742C119.74 27.5615 119.786 27.1933 119.696 26.8468C119.606 26.5004 119.386 26.2027 119.083 26.0164C118.78 25.83 118.417 25.7693 118.07 25.8473C117.724 25.9252 117.421 26.1355 117.225 26.4341C117.225 26.4557 115.7 28.8465 113.498 28.6865C113.357 28.686 113.218 28.6533 113.091 28.591C112.964 28.5286 112.853 28.4382 112.766 28.3265C111.546 26.8034 112.68 24.7695 113.275 23.2372L115.511 17.4709C116.324 15.356 117.145 13.2421 117.975 11.1292C118.536 9.68305 119.098 8.23482 119.661 6.78453L119.902 6.16606ZM89.6599 6.29837C90.9348 5.75682 92.6457 5.64912 93.1886 6.41529C93.3252 6.60802 93.414 6.83101 93.4474 7.06554C93.4809 7.30006 93.458 7.53926 93.3808 7.76301C92.9233 9.49843 90.6145 11.5016 89.1597 12.1723L89.0774 12.2154C87.5815 12.9109 85.94 13.2278 84.2952 13.1385C85.4633 10.1415 87.0187 7.42146 89.6599 6.29837ZM109.691 24.8557C109.164 26.2126 107.801 27.5972 106.523 28.0742C106.214 28.2103 105.878 28.2754 105.541 28.2647C105.204 28.2541 104.874 28.168 104.574 28.0126C103.714 27.5511 103.525 26.9972 103.458 26.6218C103.198 25.1664 104.354 23.0464 105.541 21.6987C106.947 20.0986 108.722 19.2586 110.564 19.2586C110.986 19.2593 111.407 19.3025 111.82 19.3879C110.631 22.4648 109.716 24.828 109.691 24.8557Z" fill="#26C6D0"/>
<path d="M91.6667 35.619C87.4823 40.1822 81.1599 41.6622 72.8764 40.0161C64.7516 38.4006 58.112 34.4467 57.3831 34.0036C56.3523 33.3882 55.4587 32.7728 54.6169 32.2005C53.9664 29.4734 52.9398 26.8519 51.567 24.4127C51.2621 23.865 50.9571 23.3142 50.6521 22.7634C48.3433 18.6649 46.1627 14.794 47.8889 10.0462C49.606 5.82155 53.153 2.96918 56.9317 2.77533C57.2186 2.76124 57.506 2.76844 57.7918 2.79688C58.5479 2.87268 59.2877 3.0668 59.9847 3.37227C59.4646 3.68877 58.9663 4.04034 58.4933 4.42459C55.6477 6.74156 54.379 9.63085 55.233 12.5386C55.4208 13.228 55.7673 13.863 56.2442 14.3918C56.7212 14.9206 57.3152 15.3283 57.9778 15.5817C58.8337 15.8763 59.7443 15.9723 60.642 15.8626C61.5397 15.7528 62.4013 15.4402 63.1626 14.9479C65.1938 13.674 66.4351 11.4186 66.3467 8.53545C66.3072 7.04861 65.887 5.59741 65.1267 4.32306C68.2447 3.77105 71.4556 4.35331 74.1879 5.96616C74.3443 6.05688 74.5169 6.11563 74.6958 6.13906C74.8747 6.16248 75.0564 6.15012 75.2306 6.10269C75.4047 6.05526 75.5679 5.97368 75.7109 5.86262C75.8538 5.75155 75.9736 5.61317 76.0635 5.45538C76.1535 5.29759 76.2117 5.12348 76.2349 4.94299C76.2581 4.76249 76.2459 4.57915 76.1989 4.40343C76.1519 4.22771 76.071 4.06305 75.9609 3.91885C75.8508 3.77466 75.7137 3.65376 75.5573 3.56304C73.6872 2.46014 71.6144 1.75231 69.4648 1.48255C67.3152 1.21278 65.1337 1.38671 63.0528 1.99378C62.9583 1.92301 62.8637 1.85224 62.7631 1.78455C61.3612 0.80464 59.7335 0.203942 58.0358 0.0398926C57.6172 -0.000888273 57.1962 -0.011164 56.7762 0.00913027C51.933 0.258366 47.4375 3.79689 45.324 9.0216L45.3057 9.06469C43.122 15.031 45.8455 19.868 48.2518 24.1419C48.5568 24.6804 48.8618 25.2158 49.1485 25.7512C49.8707 27.0684 50.5035 28.4336 51.0424 29.8374C48.9477 28.5461 46.6173 27.6923 44.1894 27.3266C39.6817 26.585 35.8267 27.4343 32.7341 29.8528C28.995 32.7759 27.345 37.3791 27.0705 40.4345C26.7655 43.9915 27.8025 47.2654 30.035 49.6655C32.2675 52.0655 35.4546 53.3578 39.0443 53.3578H39.5445C46.3975 53.1301 51.4023 49.3424 54.0191 42.413C54.8067 40.3248 55.1687 38.0978 55.0835 35.8652C55.3611 36.0437 55.6508 36.2221 55.9497 36.4067C56.7244 36.8775 63.7451 41.0592 72.3336 42.7669C81.4832 44.5854 88.8638 42.7669 93.6826 37.536C93.9301 37.2663 94.0613 36.9084 94.0473 36.5411C94.0333 36.1738 93.8752 35.8272 93.6079 35.5775C93.3406 35.3278 92.9859 35.1954 92.6218 35.2096C92.2578 35.2237 91.9142 35.3832 91.6667 35.6529V35.619ZM62.4215 5.18769C63.1775 6.16713 63.5971 7.36809 63.617 8.60929C63.675 10.4955 62.9186 11.8401 61.7292 12.5878C61.3251 12.8557 60.8673 13.0303 60.3886 13.0989C59.9098 13.1675 59.422 13.1285 58.9599 12.9848C58.6907 12.8865 58.4497 12.7227 58.2582 12.508C58.0667 12.2934 57.9306 12.0344 57.8619 11.754C57.0812 9.09545 59.4845 7.17542 60.2134 6.58156C60.8903 6.02774 61.6318 5.55963 62.4215 5.18769ZM51.4633 41.3915C49.243 47.2808 45.205 50.3639 39.4682 50.5578C36.4702 50.6593 33.8351 49.6562 32.0418 47.7423C30.3583 45.9423 29.5684 43.4346 29.8154 40.6653C30.0411 38.1668 31.383 34.4036 34.4268 32.0251C36.3025 30.5574 38.5654 29.822 41.1822 29.822C42.0457 29.8258 42.9074 29.8989 43.7594 30.0405C47.468 30.6559 49.4626 31.9944 52.1617 33.8529C52.6099 36.3832 52.3686 38.9888 51.4633 41.3915Z" fill="#26C6D0"/>
<path d="M4.11417 5.40952C5.15728 5.39404 6.19244 5.59469 7.1556 5.99905C8.11876 6.4034 8.98942 7.00286 9.71372 7.76033C10.4574 8.4954 11.0511 9.37037 11.4613 10.3358C11.8583 11.3116 12.0565 12.358 12.0438 13.4128C12.0438 15.5345 11.2084 17.5694 9.72127 19.0697C8.23418 20.57 6.21724 21.4129 4.11417 21.4129H1.0643C0.922871 21.4139 0.782745 21.3856 0.652578 21.3298C0.527802 21.2751 0.413273 21.1991 0.314029 21.1052C0.218167 21.0084 0.140647 20.8947 0.0852893 20.7698C0.0299676 20.6385 0.00195363 20.4971 0.00295565 20.3544V6.47109C0.00195363 6.3284 0.0299676 6.18702 0.0852893 6.05569C0.140647 5.93077 0.218167 5.81711 0.314029 5.7203C0.412475 5.62538 0.527193 5.54927 0.652578 5.49568C0.78255 5.43889 0.922667 5.40957 1.0643 5.40952H4.11417ZM4.11417 19.2898C4.87961 19.302 5.6394 19.1557 6.34654 18.8598C7.05369 18.564 7.69315 18.1249 8.22538 17.5698C8.78202 17.0345 9.22214 16.3882 9.51776 15.672C9.81337 14.9558 9.958 14.1853 9.94246 13.4097C9.93365 11.8529 9.31677 10.3624 8.22566 9.26163C7.13455 8.16081 5.65721 7.53844 4.11417 7.52956H2.1104V19.2898H4.11417Z" fill="#26C6D0"/>
<path d="M15.6976 20.3605V16.0527C15.6963 15.9154 15.7221 15.7792 15.7734 15.6519C15.8247 15.5247 15.9004 15.4089 15.9962 15.3114C16.0921 15.2138 16.2061 15.1364 16.3318 15.0835C16.4575 15.0307 16.5923 15.0035 16.7284 15.0035C16.8643 15.0018 16.9991 15.0282 17.1245 15.0812C17.2498 15.1341 17.3631 15.2124 17.4573 15.3112C17.6518 15.5095 17.7613 15.7769 17.7623 16.0558V20.3636C17.7619 20.6427 17.6523 20.9103 17.4573 21.1082C17.3126 21.2542 17.1281 21.3535 16.9273 21.3933C16.7264 21.4332 16.5184 21.4118 16.3297 21.3319C16.1409 21.2521 15.98 21.1173 15.8674 20.9449C15.7549 20.7724 15.6957 20.5701 15.6976 20.3636V20.3605Z" fill="#26C6D0"/>
<path d="M36.3912 20.3605V16.0527C36.3899 15.9154 36.4157 15.7792 36.467 15.6519C36.5182 15.5247 36.594 15.4089 36.6898 15.3114C36.7857 15.2138 36.8997 15.1364 37.0254 15.0835C37.1511 15.0307 37.2859 15.0035 37.422 15.0035C37.5579 15.0018 37.6927 15.0282 37.8181 15.0812C37.9434 15.1341 38.0567 15.2124 38.1509 15.3112C38.3453 15.5095 38.4548 15.7769 38.4559 16.0558V20.3636C38.4555 20.6427 38.3459 20.9103 38.1509 21.1082C38.0062 21.2542 37.8217 21.3535 37.6209 21.3933C37.42 21.4332 37.212 21.4118 37.0233 21.3319C36.8345 21.2521 36.6736 21.1173 36.561 20.9449C36.4485 20.7724 36.3893 20.5701 36.3912 20.3636V20.3605Z" fill="#26C6D0"/>
<path d="M30.5566 20.182C29.8648 20.7423 29.0501 21.1272 28.1806 21.3046C27.3111 21.482 26.4121 21.4467 25.5589 21.2017C24.7057 20.9566 23.9231 20.5089 23.2766 19.896C22.6301 19.2832 22.1386 18.523 21.8431 17.6791C21.5476 16.8352 21.4567 15.9322 21.5782 15.0457C21.6996 14.1591 22.0298 13.3148 22.541 12.5834C23.0523 11.852 23.7298 11.2548 24.5168 10.8417C25.3038 10.4287 26.1774 10.2119 27.0645 10.2095C28.5366 10.2095 29.9485 10.7995 30.9894 11.8497C32.0304 12.8999 32.6152 14.3243 32.6152 15.8096V21.3697C32.618 21.8332 32.5438 22.294 32.3956 22.7328C32.253 23.1528 32.0473 23.5481 31.7857 23.9051C31.5244 24.2666 31.2167 24.5915 30.8707 24.8713C30.5217 25.1569 30.141 25.4006 29.7362 25.5975C29.3283 25.7933 28.9009 25.9449 28.4613 26.0498C28.0269 26.156 27.5816 26.2097 27.1346 26.2098C26.6096 26.2105 26.0867 26.1423 25.5792 26.0067C25.0713 25.8675 24.5841 25.6606 24.1305 25.3913C23.6691 25.1214 23.2472 24.7879 22.877 24.4005C22.4955 24.008 22.1701 23.5637 21.9102 23.0805C21.8 22.9154 21.7445 22.7194 21.7516 22.5205C21.7487 22.3818 21.7742 22.2441 21.8267 22.1159C21.8792 21.9877 21.9575 21.872 22.0566 21.7758C22.153 21.6765 22.2684 21.598 22.3958 21.5451C22.5232 21.4922 22.66 21.466 22.7977 21.4681C22.9721 21.4619 23.144 21.5114 23.2887 21.6097C23.4942 21.7878 23.673 21.9951 23.8194 22.2251C24.0016 22.4854 24.2056 22.7294 24.4294 22.9543C25.151 23.6798 26.1273 24.0888 27.1461 24.0922C28.1649 24.0957 29.1439 23.6934 29.8703 22.9728C30.2817 22.5273 30.5246 21.95 30.5566 21.342V20.182ZM27.0645 12.3018C26.5936 12.2972 26.127 12.3926 25.6951 12.5818C25.2837 12.7598 24.9099 13.0157 24.5941 13.3357C24.2823 13.658 24.032 14.0356 23.856 14.4496C23.6768 14.8802 23.5846 15.3425 23.5846 15.8096C23.5846 16.2766 23.6768 16.739 23.856 17.1696C24.0313 17.5849 24.2816 17.9636 24.5941 18.2865C24.9099 18.6065 25.2837 18.8624 25.6951 19.0404C26.1262 19.2252 26.5899 19.3205 27.0584 19.3205C27.5268 19.3205 27.9905 19.2252 28.4217 19.0404C28.8349 18.8614 29.2098 18.6033 29.5257 18.2804C29.841 17.9596 30.0935 17.5817 30.2699 17.1665C30.451 16.738 30.5444 16.277 30.5444 15.8111C30.5444 15.3453 30.451 14.8842 30.2699 14.4557C30.0935 14.0405 29.841 13.6626 29.5257 13.3418C29.2098 13.0189 28.8349 12.7608 28.4217 12.5818C27.9937 12.3937 27.5313 12.2983 27.0645 12.3018Z" fill="#26C6D0"/>
<path d="M39.1573 11.9173C39.1577 12.2043 39.0879 12.487 38.9542 12.7403C38.8204 12.9936 38.6268 13.2097 38.3904 13.3694C38.1541 13.5292 37.8823 13.6276 37.5993 13.656C37.3162 13.6844 37.0305 13.642 36.7676 13.5324C36.5047 13.4227 36.2726 13.2494 36.092 13.0277C35.9114 12.8059 35.7878 12.5426 35.7321 12.2612C35.6765 11.9797 35.6905 11.6887 35.773 11.4141C35.8555 11.1394 36.0039 10.8895 36.205 10.6865C36.4467 10.4426 36.7546 10.2764 37.0898 10.209C37.425 10.1415 37.7725 10.1758 38.0884 10.3075C38.4043 10.4392 38.6745 10.6624 38.8647 10.949C39.055 11.2355 39.1568 11.5724 39.1573 11.9173Z" fill="#EE6C8A"/>
<path d="M18.4639 11.9173C18.4643 12.2043 18.3946 12.487 18.2608 12.7403C18.1271 12.9936 17.9334 13.2097 17.6971 13.3694C17.4607 13.5292 17.189 13.6276 16.9059 13.656C16.6228 13.6844 16.3371 13.642 16.0742 13.5324C15.8113 13.4227 15.5793 13.2494 15.3986 13.0277C15.218 12.8059 15.0944 12.5426 15.0388 12.2612C14.9831 11.9797 14.9972 11.6887 15.0797 11.4141C15.1622 11.1394 15.3105 10.8895 15.5116 10.6865C15.7533 10.4426 16.0612 10.2764 16.3964 10.209C16.7316 10.1415 17.0792 10.1758 17.3951 10.3075C17.711 10.4392 17.9811 10.6624 18.1713 10.949C18.3616 11.2355 18.4634 11.5724 18.4639 11.9173Z" fill="#26C6D0"/>
</g>
<defs>
<clipPath id="clip0_141_705">
<rect width="120" height="53.3333" fill="white"/>
</clipPath>
</defs>
</svg>
