<svg width="365" height="39" viewBox="0 0 365 39" fill="none" xmlns="http://www.w3.org/2000/svg">
<path d="M51.696 26.336C57.352 26.336 61.468 22.304 61.468 16.676C61.468 11.048 57.352 7.016 51.696 7.016C46.068 7.016 41.952 11.048 41.952 16.676C41.952 22.304 46.068 26.336 51.696 26.336ZM51.696 22.808C48.252 22.808 46.04 20.148 46.04 16.676C46.04 13.176 48.252 10.544 51.696 10.544C55.14 10.544 57.38 13.176 57.38 16.676C57.38 20.148 55.14 22.808 51.696 22.808ZM76.3225 26.336C82.0065 26.336 84.7505 23.172 84.7505 18.524V7.324H80.6905V18.412C80.6905 21.016 79.2065 22.808 76.3225 22.808C73.4385 22.808 71.9265 21.016 71.9265 18.412V7.324H67.8945V18.552C67.8945 23.144 70.6385 26.336 76.3225 26.336ZM107.186 26L102.986 18.888C105.002 18.412 107.074 16.648 107.074 13.344C107.074 9.872 104.694 7.324 100.802 7.324H92.066V26H96.042V19.364H98.954L102.622 26H107.186ZM100.214 15.864H96.042V10.824H100.214C101.81 10.824 103.014 11.776 103.014 13.344C103.014 14.912 101.81 15.864 100.214 15.864ZM128.471 26V7.324H124.495V26H128.471ZM152.531 26V7.324H148.555V19.056L139.903 7.324H135.815V26H139.791V13.82L148.695 26H152.531ZM168.894 26.364C172.282 26.364 174.942 24.964 176.846 22.836V15.668H167.942V19.14H172.87V21.38C172.114 22.08 170.546 22.808 168.894 22.808C165.506 22.808 163.042 20.204 163.042 16.676C163.042 13.148 165.506 10.544 168.894 10.544C170.882 10.544 172.478 11.664 173.318 12.98L176.622 11.188C175.222 8.976 172.786 7.016 168.894 7.016C163.434 7.016 158.954 10.768 158.954 16.676C158.954 22.556 163.434 26.364 168.894 26.364ZM198.758 26L194.558 18.888C196.574 18.412 198.646 16.648 198.646 13.344C198.646 9.872 196.266 7.324 192.374 7.324H183.638V26H187.614V19.364H190.526L194.194 26H198.758ZM191.786 15.864H187.614V10.824H191.786C193.382 10.824 194.586 11.776 194.586 13.344C194.586 14.912 193.382 15.864 191.786 15.864ZM222.683 26L215.487 7.324H210.503L203.279 26H207.815L208.991 22.836H216.999L218.147 26H222.683ZM215.907 19.336H210.083L212.995 11.3L215.907 19.336ZM235.408 26C241.26 26 245.32 22.304 245.32 16.676C245.32 11.048 241.26 7.324 235.408 7.324H228.044V26H235.408ZM235.408 22.5H232.02V10.824H235.408C239.244 10.824 241.26 13.372 241.26 16.676C241.26 19.84 239.104 22.5 235.408 22.5ZM255.754 26V7.324H251.778V26H255.754ZM276.314 26V22.5H267.074V18.272H276.118V14.772H267.074V10.824H276.314V7.324H263.098V26H276.314ZM299.775 26V7.324H295.799V19.056L287.147 7.324H283.059V26H287.035V13.82L295.939 26H299.775ZM315.409 26V10.824H320.841V7.324H305.945V10.824H311.405V26H315.409ZM333.471 26.336C338.511 26.336 340.947 23.76 340.947 20.344C340.947 13.372 330.223 15.36 330.223 12.392C330.223 11.272 331.175 10.516 332.883 10.516C334.787 10.516 336.803 11.16 338.315 12.56L340.527 9.648C338.679 7.94 336.215 7.044 333.247 7.044C328.851 7.044 326.163 9.62 326.163 12.728C326.163 19.756 336.915 17.488 336.915 20.792C336.915 21.856 335.851 22.864 333.667 22.864C331.091 22.864 329.047 21.716 327.731 20.344L325.575 23.368C327.311 25.132 329.887 26.336 333.471 26.336Z" fill="white"/>
<circle cx="360" cy="22" r="5" fill="#EE6C8A"/>
</svg>
