<svg width="47" height="63" viewBox="0 0 47 63" fill="none" xmlns="http://www.w3.org/2000/svg">
<g clip-path="url(#clip0_2_557)">
<path d="M27.4679 20.0613C26.2584 19.5035 24.9185 19.1861 23.5021 19.1861C22.0858 19.1861 20.7459 19.5035 19.5364 20.0613C11.1328 18.6238 0.323608 22.6596 0.323608 38.6534C0.323608 54.239 10.9394 62.6735 16.8296 62.6735C17.8952 62.6735 18.9204 62.4603 19.8376 62.1611C22.2297 61.3811 24.7791 61.3811 27.1666 62.1611C28.0794 62.4603 29.109 62.6735 30.1747 62.6735C36.0603 62.6735 46.6806 54.239 46.6806 38.6534C46.6761 22.6596 35.867 18.6238 27.4679 20.0613Z" fill="#FA5254" stroke="#DB2C2E" stroke-width="1.4389" stroke-miterlimit="10"/>
<path d="M30.9345 24.5324C29.3967 21.857 26.5506 20.1973 23.4976 20.1973C20.4491 20.1973 17.5984 21.857 16.0607 24.5324L14.3251 23.5212C16.218 20.2245 19.7341 18.1794 23.4931 18.1794C27.2565 18.1794 30.7681 20.2245 32.6611 23.5212L30.9345 24.5324Z" fill="#DB2C2E"/>
<path d="M24.5003 19.3492H22.4949C22.4949 13.2864 27.3824 8.35724 33.394 8.35724V10.3797C28.493 10.3752 24.5003 14.4019 24.5003 19.3492Z" fill="#38B038"/>
<path d="M11.0385 15.6354C5.95312 10.5067 4.84253 0.367249 4.84253 0.367249C4.84253 0.367249 14.8963 1.49184 19.9816 6.62054C25.067 11.7492 23.2594 18.9412 23.2594 18.9412C23.2594 18.9412 16.1238 20.7641 11.0385 15.6354Z" fill="#72CC72" stroke="#38B038" stroke-width="1.4389" stroke-miterlimit="10"/>
<path d="M14.4721 8.6489L13.0541 10.079L22.5476 19.6535L23.9656 18.2234L14.4721 8.6489Z" fill="#38B038"/>
</g>
<defs>
<clipPath id="clip0_2_557">
<rect width="47" height="63" fill="white"/>
</clipPath>
</defs>
</svg>
