<svg width="67" height="72" viewBox="0 0 67 72" fill="none" xmlns="http://www.w3.org/2000/svg">
<path d="M55.0163 48.5728L48.1265 55.4626L11.5376 18.8697L18.4274 11.9798C28.5309 1.87635 44.9169 1.87635 55.0204 11.9798C65.1238 22.0873 65.1238 38.4693 55.0163 48.5728Z" fill="#96844A" stroke="#635831" stroke-width="2" stroke-miterlimit="10"/>
<path d="M48.5707 55.0164C58.675 44.912 58.675 28.5296 48.5707 18.4253C38.4663 8.3209 22.0839 8.3209 11.9795 18.4253C1.87516 28.5296 1.87516 44.912 11.9795 55.0164C22.0839 65.1208 38.4663 65.1207 48.5707 55.0164Z" fill="#72CC72" stroke="#38B038" stroke-width="2" stroke-miterlimit="10"/>
<path d="M30.2765 47.5311C36.2474 47.5311 41.0879 42.6907 41.0879 36.7197C41.0879 30.7487 36.2474 25.9083 30.2765 25.9083C24.3055 25.9083 19.4651 30.7487 19.4651 36.7197C19.4651 42.6907 24.3055 47.5311 30.2765 47.5311Z" fill="white"/>
<path d="M31.101 23.1814C31.101 23.668 30.2764 24.7017 30.2764 24.7017C30.2764 24.7017 29.4519 23.668 29.4519 23.1814C29.4519 22.6947 29.8219 22.3005 30.2764 22.3005C30.7309 22.3005 31.101 22.6947 31.101 23.1814Z" fill="#333333"/>
<path d="M29.4558 50.262C29.4558 49.7754 30.2803 48.7417 30.2803 48.7417C30.2803 48.7417 31.1048 49.7754 31.1048 50.262C31.1048 50.7487 30.7348 51.1429 30.2803 51.1429C29.8218 51.1429 29.4558 50.7487 29.4558 50.262Z" fill="#333333"/>
<path d="M24.2029 24.577C24.4443 24.9993 24.2512 26.3065 24.2512 26.3065C24.2512 26.3065 23.0204 25.8198 22.7791 25.4015C22.5338 24.9792 22.6584 24.4563 23.0526 24.2271C23.4428 24.0018 23.9576 24.1587 24.2029 24.577Z" fill="#333333"/>
<path d="M36.3537 48.8624C36.1124 48.4401 36.3055 47.1329 36.3055 47.1329C36.3055 47.1329 37.5362 47.6196 37.7776 48.0379C38.0189 48.4602 37.8982 48.9871 37.5041 49.2124C37.1099 49.4416 36.5951 49.2847 36.3537 48.8624Z" fill="#333333"/>
<path d="M18.9581 29.2225C19.3804 29.4639 19.8631 30.6946 19.8631 30.6946C19.8631 30.6946 18.5559 30.8917 18.1336 30.6463C17.7113 30.405 17.5544 29.8862 17.7837 29.492C18.0089 29.0978 18.5358 28.9772 18.9581 29.2225Z" fill="#333333"/>
<path d="M41.5985 44.2209C41.1762 43.9796 40.6935 42.7488 40.6935 42.7488C40.6935 42.7488 42.0007 42.5517 42.423 42.7971C42.8454 43.0384 43.0022 43.5573 42.773 43.9514C42.5437 44.3416 42.0168 44.4663 41.5985 44.2209Z" fill="#333333"/>
<path d="M16.738 35.8992C17.2247 35.8992 18.2583 36.7237 18.2583 36.7237C18.2583 36.7237 17.2247 37.5482 16.738 37.5482C16.2513 37.5482 15.8571 37.1782 15.8571 36.7237C15.8571 36.2652 16.2513 35.8992 16.738 35.8992Z" fill="#333333"/>
<path d="M43.8147 37.5442C43.328 37.5442 42.2943 36.7197 42.2943 36.7197C42.2943 36.7197 43.328 35.8951 43.8147 35.8951C44.3014 35.8951 44.6955 36.2652 44.6955 36.7197C44.6955 37.1742 44.3014 37.5442 43.8147 37.5442Z" fill="#333333"/>
<path d="M18.1336 42.7972C18.5559 42.5558 19.8631 42.7489 19.8631 42.7489C19.8631 42.7489 19.3765 43.9797 18.9582 44.221C18.5358 44.4663 18.0089 44.3416 17.7837 43.9475C17.5544 43.5573 17.7153 43.0385 18.1336 42.7972Z" fill="#333333"/>
<path d="M42.4189 30.6464C41.9966 30.8877 40.6894 30.6946 40.6894 30.6946C40.6894 30.6946 41.1761 29.4639 41.5944 29.2225C42.0167 28.9812 42.5396 29.1019 42.7688 29.496C42.9981 29.8862 42.8412 30.405 42.4189 30.6464Z" fill="#333333"/>
<path d="M22.775 48.0419C23.0163 47.6196 24.2471 47.137 24.2471 47.137C24.2471 47.137 24.4442 48.4441 24.1988 48.8665C23.9575 49.2888 23.4386 49.4456 23.0445 49.2164C22.6543 48.9871 22.5337 48.4602 22.775 48.0419Z" fill="#333333"/>
<path d="M37.7775 25.4015C37.5362 25.8238 36.3055 26.3065 36.3055 26.3065C36.3055 26.3065 36.1084 24.9993 36.3537 24.577C36.5951 24.1547 37.1139 23.9978 37.5081 24.2271C37.8982 24.4563 38.0189 24.9792 37.7775 25.4015Z" fill="#333333"/>
<path d="M18.6607 23.9497C19.0026 24.2916 19.1514 25.5947 19.1514 25.5947C19.1514 25.5947 17.8483 25.4459 17.5064 25.104C17.1645 24.7621 17.1484 24.2272 17.4662 23.9095C17.7839 23.5917 18.3188 23.6078 18.6607 23.9497Z" fill="#333333"/>
<path d="M41.8922 49.4939C41.5504 49.152 41.4016 47.8489 41.4016 47.8489C41.4016 47.8489 42.7047 47.9977 43.0466 48.3396C43.3885 48.6814 43.4045 49.2164 43.0868 49.5341C42.7691 49.8519 42.2341 49.8358 41.8922 49.4939Z" fill="#333333"/>
<path d="M13.8946 31.4508C14.3612 31.5755 15.1415 32.6293 15.1415 32.6293C15.1415 32.6293 13.9389 33.1521 13.4723 33.0274C13.0058 32.9028 12.7242 32.4483 12.8409 32.0139C12.9535 31.5755 13.4281 31.3261 13.8946 31.4508Z" fill="#333333"/>
<path d="M46.6625 41.9927C46.1959 41.868 45.4156 40.8143 45.4156 40.8143C45.4156 40.8143 46.6182 40.2914 47.0848 40.4161C47.5513 40.5408 47.8329 40.9952 47.7162 41.4296C47.5996 41.868 47.129 42.1174 46.6625 41.9927Z" fill="#333333"/>
<path d="M13.4682 40.4161C13.9348 40.2914 15.1374 40.8143 15.1374 40.8143C15.1374 40.8143 14.3571 41.868 13.8905 41.9927C13.424 42.1174 12.9534 41.864 12.8367 41.4296C12.7201 40.9952 13.0057 40.5408 13.4682 40.4161Z" fill="#333333"/>
<path d="M47.0848 33.0275C46.6182 33.1522 45.4156 32.6293 45.4156 32.6293C45.4156 32.6293 46.1959 31.5755 46.6625 31.4509C47.129 31.3262 47.5996 31.5796 47.7162 32.0139C47.8329 32.4483 47.5513 32.9028 47.0848 33.0275Z" fill="#333333"/>
<path d="M17.5064 48.3396C17.8483 47.9977 19.1514 47.8489 19.1514 47.8489C19.1514 47.8489 19.0026 49.152 18.6607 49.4939C18.3188 49.8358 17.7839 49.8519 17.4662 49.5341C17.1484 49.2164 17.1645 48.6774 17.5064 48.3396Z" fill="#333333"/>
<path d="M43.0467 25.104C42.7089 25.4459 41.4057 25.5947 41.4057 25.5947C41.4057 25.5947 41.5545 24.2916 41.8964 23.9497C42.2383 23.6078 42.7732 23.5917 43.091 23.9095C43.4087 24.2272 43.3886 24.7621 43.0467 25.104Z" fill="#333333"/>
<path d="M25.0036 53.1057C25.1283 52.6392 26.1821 51.8589 26.1821 51.8589C26.1821 51.8589 26.7049 53.0615 26.5802 53.5281C26.4556 53.9946 26.0011 54.2762 25.5667 54.1595C25.1323 54.0469 24.8789 53.5723 25.0036 53.1057Z" fill="#333333"/>
<path d="M35.5496 20.3377C35.4249 20.8043 34.3711 21.5845 34.3711 21.5845C34.3711 21.5845 33.8483 20.3819 33.973 19.9154C34.0976 19.4488 34.5521 19.1673 34.9865 19.2839C35.4209 19.3965 35.6743 19.8711 35.5496 20.3377Z" fill="#333333"/>
<path d="M33.973 53.528C33.8483 53.0615 34.3711 51.8589 34.3711 51.8589C34.3711 51.8589 35.4249 52.6392 35.5496 53.1057C35.6743 53.5723 35.4209 54.0429 34.9865 54.1595C34.5521 54.2802 34.0976 53.9946 33.973 53.528Z" fill="#333333"/>
<path d="M26.5841 19.9155C26.7088 20.382 26.1859 21.5847 26.1859 21.5847C26.1859 21.5847 25.1321 20.8044 25.0074 20.3378C24.8827 19.8712 25.1361 19.4007 25.5705 19.284C26.0049 19.1634 26.4594 19.4489 26.5841 19.9155Z" fill="#333333"/>
</svg>
