<svg width="61" height="61" viewBox="0 0 61 61" fill="none" xmlns="http://www.w3.org/2000/svg">
<g clip-path="url(#clip0_2_497)">
<path d="M30.4977 5.49538C40.4719 5.49538 49.812 8.21782 57.8425 12.9419L60.3703 8.5805C51.6052 3.42027 41.3982 0.459106 30.4977 0.459106C19.6017 0.459106 9.39475 3.42027 0.625061 8.58509L3.15285 12.9465C11.1834 8.21782 20.5234 5.49538 30.4977 5.49538Z" fill="#72CC72" stroke="#38B038" stroke-width="2" stroke-miterlimit="10"/>
<path d="M3.15286 12.9465L30.4977 60.091L57.8471 12.9465C49.8166 8.21785 40.4765 5.50001 30.5023 5.50001C20.5234 5.49541 11.1834 8.21785 3.15286 12.9465Z" fill="#FA5254" stroke="#DB2C2E" stroke-width="2" stroke-miterlimit="10"/>
<path d="M16.9553 19.8007C16.9553 19.1396 18.0686 17.7302 18.0686 17.7302C18.0686 17.7302 19.1819 19.1396 19.1819 19.8007C19.1819 20.4618 18.6846 20.999 18.0686 20.999C17.4526 20.999 16.9553 20.4618 16.9553 19.8007Z" fill="#333333"/>
<path d="M29.3889 19.8007C29.3889 19.1396 30.5022 17.7302 30.5022 17.7302C30.5022 17.7302 31.6155 19.1396 31.6155 19.8007C31.6155 20.4618 31.1182 20.999 30.5022 20.999C29.8862 20.999 29.3889 20.4618 29.3889 19.8007Z" fill="#333333"/>
<path d="M41.8179 19.8007C41.8179 19.1396 42.9312 17.7302 42.9312 17.7302C42.9312 17.7302 44.0445 19.1396 44.0445 19.8007C44.0445 20.4618 43.5472 20.999 42.9312 20.999C42.3152 20.999 41.8179 20.4618 41.8179 19.8007Z" fill="#333333"/>
<path d="M29.3889 42.5076C29.3889 41.8465 30.5022 40.4371 30.5022 40.4371C30.5022 40.4371 31.6155 41.8465 31.6155 42.5076C31.6155 43.1687 31.1182 43.7058 30.5022 43.7058C29.8862 43.7058 29.3889 43.1687 29.3889 42.5076Z" fill="#333333"/>
<path d="M23.1698 31.1542C23.1698 30.4931 24.2831 29.0837 24.2831 29.0837C24.2831 29.0837 25.3964 30.4931 25.3964 31.1542C25.3964 31.8153 24.8991 32.3524 24.2831 32.3524C23.6717 32.3524 23.1698 31.8153 23.1698 31.1542Z" fill="#333333"/>
<path d="M35.6034 31.1542C35.6034 30.4931 36.7167 29.0837 36.7167 29.0837C36.7167 29.0837 37.83 30.4931 37.83 31.1542C37.83 31.8153 37.3327 32.3524 36.7167 32.3524C36.1007 32.3524 35.6034 31.8153 35.6034 31.1542Z" fill="#333333"/>
</g>
<defs>
<clipPath id="clip0_2_497">
<rect width="61" height="61" fill="white"/>
</clipPath>
</defs>
</svg>
