<svg width="82" height="42" viewBox="0 0 82 42" fill="none" xmlns="http://www.w3.org/2000/svg">
<path d="M39.7855 24.4139H0V42.0055H39.7855V24.4139Z" fill="#FFB000"/>
<path d="M8.4742 29.5413C8.4742 28.3123 7.48105 27.3214 6.26119 27.3214C5.03594 27.3214 4.04819 28.3177 4.04819 29.5413C4.04819 30.765 5.04134 31.7613 6.26119 31.7613C7.48105 31.7613 8.4742 30.765 8.4742 29.5413Z" fill="#FFD74F"/>
<path d="M16.1442 34.6473C16.1442 33.4182 15.151 32.4274 13.9312 32.4274C12.7059 32.4274 11.7182 33.4236 11.7182 34.6473C11.7182 35.8764 12.7113 36.8672 13.9312 36.8672C15.1564 36.8726 16.1442 35.8764 16.1442 34.6473Z" fill="#FFD74F"/>
<path d="M8.4742 38.2045C8.4742 36.9755 7.48105 35.9846 6.26119 35.9846C5.03594 35.9846 4.04819 36.9809 4.04819 38.2045C4.04819 39.4282 5.04134 40.4245 6.26119 40.4245C7.48105 40.4245 8.4742 39.4282 8.4742 38.2045Z" fill="#FFD74F"/>
<path d="M20.7429 28.0957C20.7429 26.8666 19.7498 25.8757 18.5299 25.8757C17.3047 25.8757 16.3169 26.872 16.3169 28.0957C16.3169 29.3247 17.3101 30.3156 18.5299 30.3156C19.7498 30.3156 20.7429 29.3247 20.7429 28.0957Z" fill="#FFD74F"/>
<path d="M35.5539 30.3156C35.5539 29.0866 34.5607 28.0957 33.3409 28.0957C32.1156 28.0957 31.1279 29.092 31.1279 30.3156C31.1279 31.5447 32.121 32.5356 33.3409 32.5356C34.5661 32.541 35.5539 31.5447 35.5539 30.3156Z" fill="#FFD74F"/>
<path d="M26.1891 36.2607C26.1891 35.0316 25.196 34.0408 23.9761 34.0408C22.7509 34.0408 21.7631 35.037 21.7631 36.2607C21.7631 37.4844 22.7563 38.4806 23.9761 38.4806C25.196 38.4806 26.1891 37.4844 26.1891 36.2607Z" fill="#FFD74F"/>
<path d="M29.7838 24.3976H25.3578C25.3578 25.6267 26.351 26.6175 27.5708 26.6175C28.7961 26.6175 29.7838 25.6213 29.7838 24.3976Z" fill="#FFD74F"/>
<path d="M34.987 39.0925C34.987 37.8634 33.9939 36.8726 32.774 36.8726C31.5488 36.8726 30.561 37.8688 30.561 39.0925C30.561 40.3216 31.5542 41.3124 32.774 41.3124C33.9993 41.3124 34.987 40.3162 34.987 39.0925Z" fill="#FFD74F"/>
<path d="M0 24.4139H39.7855L31.1278 18.3876L0 24.4139Z" fill="#FFD74F"/>
<path d="M81.9945 24.4139H42.209V42.0055H81.9945V24.4139Z" fill="#FFB000"/>
<path d="M53.4251 29.5413C53.4251 28.3123 52.4319 27.3214 51.2121 27.3214C49.9868 27.3214 48.9991 28.3177 48.9991 29.5413C48.9991 30.765 49.9922 31.7613 51.2121 31.7613C52.4319 31.7613 53.4251 30.765 53.4251 29.5413Z" fill="#FFD74F"/>
<path d="M57.6784 38.6701C57.6784 37.441 56.6853 36.4502 55.4654 36.4502C54.2402 36.4502 53.2524 37.4465 53.2524 38.6701C53.2524 39.8992 54.2456 40.8901 55.4654 40.8901C56.6853 40.8901 57.6784 39.8938 57.6784 38.6701Z" fill="#FFD74F"/>
<path d="M49.3716 35.9846C49.3716 34.7555 48.3785 33.7646 47.1586 33.7646C45.9388 33.7646 44.9456 34.7609 44.9456 35.9846C44.9456 37.2137 45.9388 38.2045 47.1586 38.2045C48.3785 38.2045 49.3716 37.2082 49.3716 35.9846Z" fill="#FFD74F"/>
<path d="M62.9519 28.0957C62.9519 26.8666 61.9587 25.8757 60.7389 25.8757C59.5136 25.8757 58.5258 26.872 58.5258 28.0957C58.5258 29.3247 59.519 30.3156 60.7389 30.3156C61.9587 30.3156 62.9519 29.3247 62.9519 28.0957Z" fill="#FFD74F"/>
<path d="M77.7681 30.3156C77.7681 29.0866 76.775 28.0957 75.5551 28.0957C74.3299 28.0957 73.3421 29.092 73.3421 30.3156C73.3421 31.5447 74.3353 32.5356 75.5551 32.5356C76.775 32.541 77.7681 31.5447 77.7681 30.3156Z" fill="#FFD74F"/>
<path d="M64.8573 38.2045C66.0795 38.2045 67.0703 37.2106 67.0703 35.9846C67.0703 34.7585 66.0795 33.7646 64.8573 33.7646C63.6351 33.7646 62.6443 34.7585 62.6443 35.9846C62.6443 37.2106 63.6351 38.2045 64.8573 38.2045Z" fill="#FFD74F"/>
<path d="M71.9981 24.3976H67.5721C67.5721 25.6267 68.5652 26.6175 69.7851 26.6175C71.0049 26.6175 71.9981 25.6213 71.9981 24.3976Z" fill="#FFD74F"/>
<path d="M77.2015 39.0925C77.2015 37.8634 76.2083 36.8726 74.9885 36.8726C73.7632 36.8726 72.7755 37.8688 72.7755 39.0925C72.7755 40.3216 73.7686 41.3124 74.9885 41.3124C76.2083 41.3124 77.2015 40.3162 77.2015 39.0925Z" fill="#FFD74F"/>
<path d="M42.209 24.4139H81.9999L73.3368 18.3876L42.209 24.4139Z" fill="#FFD74F"/>
<path d="M61.7212 5.86377H21.9357V23.4554H61.7212V5.86377Z" fill="#FFB000"/>
<path d="M57.6785 10.9968C57.6785 9.7677 56.6853 8.77686 55.4655 8.77686C54.2402 8.77686 53.2524 9.77312 53.2524 10.9968C53.2524 12.2205 54.2456 13.2167 55.4655 13.2167C56.6853 13.2167 57.6785 12.2205 57.6785 10.9968Z" fill="#FFD74F"/>
<path d="M50.0032 16.1026C50.0032 14.8735 49.01 13.8827 47.7902 13.8827C46.5649 13.8827 45.5772 14.879 45.5772 16.1026C45.5772 17.3317 46.5703 18.3226 47.7902 18.3226C49.0154 18.3226 50.0032 17.3317 50.0032 16.1026Z" fill="#FFD74F"/>
<path d="M57.6785 19.66C57.6785 18.4309 56.6853 17.4401 55.4655 17.4401C54.2402 17.4401 53.2524 18.4363 53.2524 19.66C53.2524 20.8891 54.2456 21.8799 55.4655 21.8799C56.6853 21.8799 57.6785 20.8837 57.6785 19.66Z" fill="#FFD74F"/>
<path d="M45.4097 9.55111C45.4097 8.32202 44.4166 7.33118 43.1967 7.33118C41.9715 7.33118 40.9837 8.32744 40.9837 9.55111C40.9837 10.7802 41.9769 11.771 43.1967 11.771C44.4166 11.771 45.4097 10.7802 45.4097 9.55111Z" fill="#FFD74F"/>
<path d="M30.5935 11.7711C30.5935 10.542 29.6003 9.55115 28.3805 9.55115C27.1552 9.55115 26.1675 10.5474 26.1675 11.7711C26.1675 13.0002 27.1606 13.991 28.3805 13.991C29.6057 13.9964 30.5935 13.0002 30.5935 11.7711Z" fill="#FFD74F"/>
<path d="M39.9635 17.716C39.9635 16.4869 38.9704 15.4961 37.7505 15.4961C36.5253 15.4961 35.5375 16.4924 35.5375 17.716C35.5375 18.9451 36.5307 19.936 37.7505 19.936C38.9704 19.936 39.9635 18.9397 39.9635 17.716Z" fill="#FFD74F"/>
<path d="M44.0442 21.2356C42.819 21.2356 41.8312 22.2319 41.8312 23.4555H46.2573C46.2573 22.2319 45.2641 21.2356 44.0442 21.2356Z" fill="#FFD74F"/>
<path d="M36.3635 5.85303H31.9375C31.9375 7.08211 32.9307 8.07296 34.1505 8.07296C35.3758 8.07296 36.3635 7.0767 36.3635 5.85303Z" fill="#FFD74F"/>
<path d="M31.1601 20.5478C31.1601 19.3187 30.1669 18.3279 28.9471 18.3279C27.7218 18.3279 26.7341 19.3241 26.7341 20.5478C26.7341 21.7769 27.7272 22.7677 28.9471 22.7677C30.1723 22.7677 31.1601 21.7715 31.1601 20.5478Z" fill="#FFD74F"/>
<path d="M21.9357 5.86386H61.7212L27.6733 0L21.9357 5.86386Z" fill="#FFD74F"/>
</svg>
