<svg width="63" height="63" viewBox="0 0 63 63" fill="none" xmlns="http://www.w3.org/2000/svg">
<path d="M31.5 63C48.897 63 63 48.897 63 31.5C63 14.103 48.897 0 31.5 0C14.103 0 -1.90735e-06 14.103 -1.90735e-06 31.5C-1.90735e-06 48.897 14.103 63 31.5 63Z" fill="#C71C1C"/>
<path d="M30.6519 63.0001C47.5805 63.0001 61.3038 49.2668 61.3038 32.3258C61.3038 15.3849 47.5805 1.65149 30.6519 1.65149C13.7233 1.65149 -1.90735e-06 15.3849 -1.90735e-06 32.3258C-1.90735e-06 49.2668 13.7233 63.0001 30.6519 63.0001Z" fill="#FA4141"/>
<path d="M55.2789 41.6321C60.4152 28.0216 53.5537 12.8213 39.9532 7.68118C26.3527 2.54107 11.1635 9.40764 6.02711 23.0181C0.890762 36.6285 7.75231 51.8289 21.3528 56.969C34.9533 62.1091 50.1425 55.2425 55.2789 41.6321Z" fill="#FF7A7A"/>
<path d="M54.4905 39.5486C58.4764 26.3749 51.0361 12.4618 37.872 8.47298C24.7079 4.48411 10.805 11.9299 6.81909 25.1036C2.83314 38.2774 10.2735 52.1904 23.4376 56.1793C36.6017 60.1681 50.5045 52.7223 54.4905 39.5486Z" fill="#CF0C0C"/>
<path d="M38.9947 21.0893C38.9947 24.6641 36.478 30.513 30.6565 30.513C24.8349 30.513 22.9589 24.6641 22.9589 21.0893C22.9589 17.5144 26.5496 14.6177 30.9745 14.6177C35.3994 14.6177 38.9947 17.5144 38.9947 21.0893Z" fill="#FA4141"/>
<path d="M38.0358 45.2967C34.5834 44.3741 29.5916 40.4349 31.0942 34.8028C32.5968 29.1753 38.7272 28.8709 42.175 29.7934C45.6273 30.716 47.4941 34.932 46.351 39.2171C45.2079 43.4977 41.4882 46.2192 38.0358 45.2967Z" fill="#FA4141"/>
<path d="M22.7053 44.84C26.1576 43.9174 31.1495 39.9782 29.6469 34.3461C28.1442 28.7187 22.0139 28.4142 18.5661 29.3368C15.1137 30.2593 13.247 34.4753 14.3901 38.7605C15.5332 43.041 19.2575 45.7625 22.7053 44.84Z" fill="#FA4141"/>
<path d="M49.1304 14.6222L31.4998 31.5L51.9375 18.4968L49.1304 14.6222Z" fill="#FF7A7A"/>
<path d="M30.4167 34.4706L33.5418 57.7369L26.2775 57.8338L30.4167 34.4706Z" fill="#FF7A7A"/>
<path d="M28.8079 31.1402L7.10733 22.759L10.3016 16.947L28.8079 31.1402Z" fill="#FF7A7A"/>
<path d="M30.3014 36.3064C32.5823 36.3064 34.4314 34.584 34.4314 32.4594C34.4314 30.3348 32.5823 28.6124 30.3014 28.6124C28.0205 28.6124 26.1715 30.3348 26.1715 32.4594C26.1715 34.584 28.0205 36.3064 30.3014 36.3064Z" fill="#FF7A7A"/>
<path d="M29.8451 12.1729C30.0019 12.957 29.7115 14.4792 29.1399 14.5945C28.5684 14.7099 27.9369 13.3768 27.7802 12.5926C27.6235 11.8085 27.9553 11.0797 28.5269 10.9597C29.0984 10.8444 29.6884 11.3887 29.8451 12.1729Z" fill="#FF7A7A"/>
<path d="M34.6342 12.7126C34.5328 13.506 33.7676 14.8529 33.1869 14.7791C32.6107 14.7053 32.4401 13.2385 32.5415 12.4451C32.643 11.6517 33.1961 11.0659 33.7722 11.1397C34.353 11.2135 34.7402 11.9192 34.6342 12.7126Z" fill="#FF7A7A"/>
<path d="M38.5614 14.5531C38.1742 15.2543 36.9619 16.2229 36.4549 15.9416C35.9479 15.6602 36.3304 14.2349 36.7176 13.5384C37.1048 12.8372 37.8331 12.5005 38.3401 12.7773C38.8517 13.054 38.9531 13.852 38.5614 14.5531Z" fill="#FF7A7A"/>
<path d="M26.0701 13.5199C26.2268 14.304 25.9364 15.8262 25.3649 15.9415C24.7933 16.0569 24.1618 14.7238 24.0051 13.9396C23.8484 13.1555 24.1803 12.4267 24.7518 12.3068C25.3234 12.196 25.9134 12.7357 26.0701 13.5199Z" fill="#FF7A7A"/>
<path d="M49.0705 39.2862C48.273 39.2032 46.9133 38.4652 46.9732 37.884C47.0332 37.3028 48.4943 37.0998 49.2871 37.1828C50.0845 37.2659 50.6791 37.8056 50.6192 38.3868C50.5593 38.968 49.8633 39.3693 49.0705 39.2862Z" fill="#FF7A7A"/>
<path d="M47.1162 43.696C46.388 43.3593 45.337 42.2246 45.5767 41.6941C45.821 41.1636 47.2683 41.445 47.992 41.7817C48.7203 42.1185 49.112 42.8196 48.8678 43.3454C48.6281 43.8759 47.8445 44.0327 47.1162 43.696Z" fill="#FF7A7A"/>
<path d="M44.1893 46.8926C43.6362 46.3114 43.0785 44.8676 43.4979 44.4663C43.9174 44.065 45.1619 44.8584 45.7104 45.4396C46.2635 46.0208 46.3649 46.8142 45.9455 47.2201C45.526 47.6214 44.7378 47.4738 44.1893 46.8926Z" fill="#FF7A7A"/>
<path d="M48.9139 35.2778C48.1165 35.1948 46.7568 34.4567 46.8167 33.8756C46.8766 33.2944 48.3378 33.0914 49.1306 33.1744C49.928 33.2575 50.5226 33.7971 50.4626 34.3783C50.4073 34.9595 49.7113 35.3608 48.9139 35.2778Z" fill="#FF7A7A"/>
<path d="M12.6201 41.9754C13.247 41.4818 14.7404 41.0575 15.0999 41.5141C15.4595 41.9708 14.556 43.1378 13.9246 43.6313C13.2977 44.1249 12.4957 44.1572 12.1315 43.7005C11.772 43.2439 11.9887 42.469 12.6201 41.9754Z" fill="#FF7A7A"/>
<path d="M10.9471 37.4505C11.703 37.1829 13.2472 37.2659 13.4408 37.8102C13.6343 38.3591 12.4037 39.1664 11.6477 39.4339C10.8918 39.7014 10.1221 39.4708 9.92846 38.9219C9.73948 38.3776 10.1912 37.718 10.9471 37.4505Z" fill="#FF7A7A"/>
<path d="M10.8225 33.1144C11.6199 33.1467 13.0303 33.7925 13.0073 34.3737C12.9842 34.9549 11.5415 35.2501 10.7441 35.2224C9.94668 35.1901 9.31521 34.692 9.33365 34.1108C9.35669 33.5296 10.0204 33.0821 10.8225 33.1144Z" fill="#FF7A7A"/>
<path d="M15.5241 44.7431C16.151 44.2495 17.6444 43.8252 18.0039 44.2818C18.3634 44.7385 17.46 45.9055 16.8285 46.399C16.1971 46.8926 15.3996 46.9249 15.0355 46.4682C14.676 46.0116 14.8926 45.2367 15.5241 44.7431Z" fill="#FF7A7A"/>
</svg>
