<svg width="56" height="56" viewBox="0 0 56 56" fill="none" xmlns="http://www.w3.org/2000/svg">
<path d="M34.5111 55.2314C49.5514 51.636 58.8293 36.5288 55.2339 21.4886C51.6385 6.44829 36.5314 -2.82962 21.4911 0.765755C6.45085 4.36113 -2.82706 19.4683 0.768311 34.5086C4.36369 49.5488 19.4709 58.8267 34.5111 55.2314Z" fill="#FC8606"/>
<path d="M0 28.0001C0 43.465 12.535 56.0001 28 56.0001C36.4172 56.0001 43.9587 52.2829 49.092 46.4043C44.6528 48.7986 39.5754 50.1588 34.1813 50.1588C16.8065 50.1588 2.72035 36.0726 2.72035 18.6978C2.72035 17.6683 2.77159 16.6529 2.86941 15.6514C1.0341 19.3779 0 23.5655 0 28.0001Z" fill="#E57200"/>
<path d="M18.162 15.3159C17.7288 15.7398 17.9664 16.4758 18.5673 16.5643L19.8249 16.7459C20.0625 16.7785 20.2675 16.9323 20.3746 17.1465L20.9382 18.2878C21.2084 18.8328 21.9817 18.8328 22.2518 18.2878L22.8155 17.1465C22.9226 16.9323 23.1276 16.7785 23.3651 16.7459L24.6228 16.5643C25.2237 16.4758 25.4613 15.7398 25.0281 15.3159L24.1197 14.4308C23.9474 14.2632 23.8682 14.0209 23.9101 13.7834L24.1244 12.5303C24.2269 11.9341 23.598 11.4776 23.0623 11.7571L21.9397 12.3487C21.7255 12.4605 21.4739 12.4605 21.2597 12.3487L20.137 11.7571C19.6014 11.4729 18.9725 11.9294 19.075 12.5303L19.2893 13.7834C19.3312 14.0209 19.252 14.2632 19.0796 14.4308L18.162 15.3159Z" fill="#5E991A"/>
<path d="M22.9971 14.9432C22.9971 14.17 22.3683 13.5411 21.595 13.5411C20.8218 13.5411 20.1929 14.17 20.1929 14.9432C20.1929 15.7165 20.8218 16.3453 21.595 16.3453C22.3683 16.3453 22.9971 15.7165 22.9971 14.9432Z" fill="#8EC64E"/>
<path d="M43.628 18.2041C45.7568 16.7833 46.0875 13.5459 44.3687 10.97C42.6498 8.38938 39.5335 7.4531 37.4048 8.87383C35.276 10.2946 34.9453 13.532 36.6641 16.1079C38.383 18.6838 41.4993 19.6201 43.628 18.2041Z" fill="#FDB84A"/>
</svg>
