<svg width="49" height="72" viewBox="0 0 49 72" fill="none" xmlns="http://www.w3.org/2000/svg">
<path d="M23.7623 60.3285C22.513 60.1143 21.2733 59.8003 20.1057 59.4053C18.448 58.8438 16.992 57.7969 15.3487 57.1449C11.6489 55.6698 9.61156 52.1198 9.06859 48.3034C8.78029 46.3001 9.4578 43.916 8.78029 42.0125C8.27096 40.5707 6.95919 39.3715 6.23364 38.0201C4.24917 34.3274 3.55725 29.9399 4.41735 25.8333C5.3351 21.441 8.00668 17.4533 11.6729 14.8408C12.6339 14.1556 13.7967 13.518 14.6328 12.69C15.3151 12.0142 15.7716 11.1862 16.4731 10.5058C18.2221 8.81168 20.2066 7.20803 22.5707 6.4752C26.0159 5.41403 29.8647 6.40382 32.863 8.39768C36.0391 10.5105 38.5665 13.4656 39.8639 17.0203C41.3054 20.9747 44.5584 23.8394 44.9091 28.2554C45.1302 31.0344 44.2557 33.7849 43.1457 36.345C42.2087 38.5054 41.0027 40.5279 40.2531 42.7501C39.417 45.2294 39.0182 47.7181 38.5377 50.283C38.038 52.9574 37.2355 55.7078 35.3376 57.6636C33.233 59.8336 30.0424 60.6996 27.0105 60.6378C25.9438 60.6187 24.8482 60.5093 23.7623 60.3285Z" fill="#72CC72" stroke="#38B038" stroke-width="4.3847" stroke-miterlimit="10"/>
<path d="M27.7984 65.9532H20.8408L24.3196 14.9741L27.7984 65.9532Z" fill="white" stroke="#38B038" stroke-width="4.3847" stroke-miterlimit="10"/>
<path d="M14.9338 26.795L13.1401 27.8943L21.6482 41.5099L23.4418 40.4107L14.9338 26.795Z" fill="#38B038"/>
<path d="M36.0394 31.5682L25.5007 43.0265L27.0567 44.43L37.5953 32.9718L36.0394 31.5682Z" fill="#38B038"/>
<path d="M33.1149 23.3567L24.7444 30.6691L26.1398 32.2356L34.5102 24.9232L33.1149 23.3567Z" fill="#38B038"/>
<path d="M20.5963 20.1548L18.8069 21.2522L22.6169 27.3451L24.4062 26.2478L20.5963 20.1548Z" fill="#38B038"/>
<path d="M17.4985 42.529L15.6602 43.5436L20.6868 52.4762L22.5252 51.4616L17.4985 42.529Z" fill="#38B038"/>
</svg>
