<svg width="31" height="60" viewBox="0 0 31 60" fill="none" xmlns="http://www.w3.org/2000/svg">
<g clip-path="url(#clip0_2_516)">
<path d="M25.753 29.3811C25.7592 36.8051 26.1051 57.4418 14.0732 57.0323C2.0413 56.6227 3.81706 36.0593 4.33897 28.6537C4.94118 20.1141 8.00474 0.0336309 16.0435 0.308706C24.1193 0.583781 25.7437 20.8232 25.753 29.3811Z" fill="#FFBB54" stroke="#FF8A05" stroke-width="2" stroke-miterlimit="10"/>
<path d="M26.2224 42.3738C25.2125 51.0326 22.3095 59.9694 13.9805 59.6852C5.29319 59.3887 3.18699 49.4891 2.92449 40.4605C2.78861 35.8148 4.38215 23.2683 0.531086 16.3028C9.36352 16.6054 26.8091 37.3552 26.2224 42.3738Z" fill="white" stroke="#38B038" stroke-width="2" stroke-miterlimit="10"/>
<path d="M3.00772 41.5853C3.41228 50.2899 5.69142 59.404 14.0205 59.6883C22.7078 59.9848 25.4934 50.2471 26.3828 41.2613C26.8399 36.637 26.1203 24.011 30.447 17.3237C21.6145 17.0241 2.77301 36.5361 3.00772 41.5853Z" fill="#72CC72" stroke="#38B038" stroke-width="2" stroke-miterlimit="10"/>
<path d="M15.0335 20.6857L13.5357 20.6337C13.545 20.4075 13.4616 20.1936 13.3072 20.0286C13.1528 19.8635 12.9397 19.7688 12.7112 19.7596C12.4765 19.7474 12.2665 19.8329 12.0997 19.9858C11.9329 20.1386 11.8372 20.3495 11.8279 20.5757L10.3301 20.5237C10.3517 19.9032 10.6173 19.3256 11.0744 18.9038C11.5345 18.479 12.1275 18.2589 12.7606 18.2772C13.3875 18.2986 13.9712 18.5615 14.3974 19.0138C14.8328 19.4723 15.0552 20.0652 15.0335 20.6857Z" fill="#FF8A05"/>
<path d="M20.3731 20.866L18.8753 20.8141C18.8846 20.5879 18.8012 20.3739 18.6468 20.2089C18.4924 20.0439 18.2793 19.9491 18.0508 19.9399C17.8161 19.9277 17.6061 20.0133 17.4393 20.1661C17.2725 20.3189 17.1768 20.5298 17.1675 20.756L15.6697 20.704C15.6913 20.0836 15.9569 19.5059 16.414 19.0841C16.8741 18.6593 17.4671 18.4362 18.1002 18.4576C18.7271 18.479 19.3108 18.7418 19.737 19.1942C20.1693 19.6526 20.3948 20.2456 20.3731 20.866Z" fill="#FF8A05"/>
<path d="M12.4734 17.51L10.9756 17.4581C10.991 16.9935 10.6235 16.5992 10.151 16.5839C9.6754 16.5687 9.28319 16.9324 9.26775 17.4L7.76994 17.348C7.81317 16.0674 8.90333 15.068 10.2004 15.1016C11.4975 15.1505 12.5166 16.2294 12.4734 17.51Z" fill="#FF8A05"/>
<path d="M23.1496 17.8737L21.6518 17.8218C21.6611 17.5956 21.5777 17.3816 21.4233 17.2166C21.2689 17.0516 21.0558 16.9568 20.8272 16.9476C20.5894 16.9354 20.3825 17.021 20.2158 17.1738C20.049 17.3266 19.9533 17.5375 19.944 17.7637L18.4462 17.7117C18.4678 17.0913 18.7334 16.5136 19.1905 16.0918C19.6506 15.667 20.2497 15.4469 20.8766 15.4683C21.5036 15.4897 22.0872 15.7526 22.5134 16.2049C22.9489 16.6603 23.1712 17.2533 23.1496 17.8737Z" fill="#FF8A05"/>
<path d="M15.2343 14.961L13.7365 14.9091C13.7519 14.4445 13.3844 14.0502 12.9119 14.0349C12.4456 14.0196 12.0441 14.3834 12.0287 14.851L10.5309 14.799C10.5772 13.5184 11.6581 12.519 12.9613 12.5526C14.2584 12.5984 15.2775 13.6773 15.2343 14.961Z" fill="#FF8A05"/>
<path d="M20.5739 15.1414L19.0761 15.0895C19.0854 14.8633 19.002 14.6494 18.8476 14.4843C18.6931 14.3193 18.4801 14.2245 18.2515 14.2154C18.0106 14.2062 17.8068 14.2887 17.64 14.4415C17.4733 14.5943 17.3775 14.8052 17.3683 15.0314L15.8705 14.9795C15.8921 14.359 16.1577 13.7813 16.6147 13.3596C17.0749 12.9347 17.6709 12.7177 18.3009 12.7361C18.9279 12.7575 19.5115 13.0203 19.9377 13.4727C20.3701 13.9281 20.5955 14.521 20.5739 15.1414Z" fill="#FF8A05"/>
<path d="M12.6558 12.2256L11.158 12.1736C11.1672 11.9475 11.0838 11.7335 10.9294 11.5685C10.775 11.4034 10.5619 11.3087 10.3334 11.2995C9.86706 11.2781 9.46559 11.651 9.45015 12.1156L7.95234 12.0636C7.99557 10.783 9.07647 9.78659 10.3828 9.81715C11.0097 9.83855 11.5934 10.1014 12.0196 10.5537C12.4519 11.0122 12.6774 11.6051 12.6558 12.2256Z" fill="#FF8A05"/>
<path d="M23.3348 12.5893L21.837 12.5373C21.8463 12.3112 21.7629 12.0972 21.6085 11.9322C21.4541 11.7671 21.241 11.6724 21.0125 11.6632C20.7747 11.651 20.5677 11.7366 20.401 11.8894C20.2342 12.0422 20.1385 12.2531 20.1292 12.4793L18.6314 12.4273C18.653 11.8069 18.9186 11.2292 19.3757 10.8074C19.8358 10.3826 20.4349 10.1625 21.0619 10.1839C21.6888 10.2053 22.2725 10.4682 22.6986 10.9205C23.131 11.3759 23.3564 11.9689 23.3348 12.5893Z" fill="#FF8A05"/>
<path d="M15.4164 9.67653L13.9186 9.62457C13.9279 9.3984 13.8445 9.18445 13.6901 9.01941C13.5357 8.85436 13.3226 8.75961 13.094 8.75044C12.8562 8.74127 12.6493 8.8238 12.4826 8.97662C12.3158 9.12944 12.2201 9.34033 12.2108 9.5665L10.713 9.51454C10.7346 8.89409 11.0002 8.31644 11.4573 7.89465C11.9174 7.46982 12.532 7.25587 13.1435 7.27115C14.4436 7.31394 15.4627 8.39285 15.4164 9.67653Z" fill="#FF8A05"/>
<path d="M20.7561 9.85687L19.2583 9.80491C19.2676 9.57874 19.1842 9.36479 19.0298 9.19975C18.8754 9.0347 18.6623 8.93995 18.4338 8.93078C18.1929 8.92161 17.9891 9.00414 17.8223 9.15696C17.6555 9.30978 17.5598 9.52067 17.5505 9.74684L16.0527 9.69488C16.0743 9.07443 16.3399 8.49678 16.797 8.075C17.2571 7.65016 17.8717 7.43927 18.4832 7.45149C19.1101 7.47289 19.6938 7.73574 20.12 8.18808C20.5523 8.64348 20.7778 9.23642 20.7561 9.85687Z" fill="#FF8A05"/>
<path d="M12.8378 6.94408L11.34 6.89212C11.3493 6.66595 11.2659 6.452 11.1115 6.28696C10.9571 6.12191 10.744 6.02716 10.5155 6.01799C10.3456 6.01494 10.1788 6.05773 10.0337 6.14636L9.24309 4.89018C9.64148 4.64262 10.0924 4.52342 10.571 4.53564C11.865 4.58149 12.8842 5.6604 12.8378 6.94408Z" fill="#FF8A05"/>
<path d="M20.3146 7.19783L18.8168 7.14588C18.8384 6.52543 19.104 5.94777 19.5611 5.52599C20.0212 5.10115 20.6203 4.88109 21.2472 4.90249C21.5653 4.91471 21.8711 4.98501 22.1552 5.11643L21.5252 6.46125C21.4233 6.41234 21.3121 6.38789 21.1947 6.38484C20.9724 6.38178 20.75 6.45819 20.5833 6.61101C20.4165 6.76383 20.3208 6.97166 20.3146 7.19783Z" fill="#FF8A05"/>
<path d="M15.6019 4.39209L14.1041 4.34013C14.1195 3.87556 13.749 3.48128 13.2795 3.466C12.807 3.43849 12.4148 3.81749 12.3963 4.28206L10.8985 4.2301C10.9448 2.94947 12.0226 1.95614 13.329 1.98365C14.626 2.0295 15.6452 3.1084 15.6019 4.39209Z" fill="#FF8A05"/>
<path d="M20.9383 4.57235L19.4405 4.52039C19.4559 4.05582 19.0853 3.66154 18.6159 3.64626C18.3935 3.6432 18.1712 3.71961 18.0044 3.87243C17.8377 4.02525 17.7419 4.23614 17.7327 4.46232L16.2348 4.41036C16.2565 3.78991 16.5221 3.21225 16.9791 2.79047C17.4393 2.36563 18.0322 2.14863 18.6653 2.16697C19.9655 2.21281 20.9846 3.29172 20.9383 4.57235Z" fill="#FF8A05"/>
</g>
<defs>
<clipPath id="clip0_2_516">
<rect width="31" height="60" fill="white"/>
</clipPath>
</defs>
</svg>
