<svg width="38" height="73" viewBox="0 0 38 73" fill="none" xmlns="http://www.w3.org/2000/svg">
<path d="M0.783947 52.4366C-0.980106 41.0873 0.155723 18.6216 4.89504 11.0917C10.6646 1.92707 18.2134 7.98564 17.0172 16.8382C15.5598 27.6079 16.0473 38.8036 19.1231 50.1528C22.4954 62.6167 3.16617 66.5848 0.783947 52.4366Z" fill="#239130"/>
<path d="M12.0217 6.63816C12.0217 6.63816 6.11639 6.51927 5.9053 2.66517C5.9053 2.66517 8.39307 2.17474 9.60429 3.15561C10.8155 4.13647 11.3131 4.90927 11.3131 4.90927C11.3131 4.90927 10.1722 3.0169 12.8761 0C12.8761 0 15.1528 2.73453 13.3033 5.46906C13.3033 5.46906 16.0775 3.50733 18.3542 5.67712C18.3542 5.67712 16.7811 8.09955 12.0217 6.63816Z" fill="#FFC82C"/>
<path d="M1.14084 54.0714C1.14084 54.0714 4.82474 59.4314 7.28738 58.9906C7.28738 58.9906 4.80967 50.6582 6.48828 42.9401C6.48828 42.9401 6.51843 57.6827 10.7401 59.045C10.7401 59.045 12.8359 51.9858 12.1272 47.131C12.1272 47.131 14.0571 55.7161 13.7003 59.0104C13.7003 59.0104 15.2281 59.6445 18.8919 56.1817C18.8919 56.1817 17.2435 61.1158 10.6295 61.4724C10.6346 61.4724 3.40244 61.8687 1.14084 54.0714Z" fill="#64CC5C"/>
<path d="M5.70913 31.6948C5.70913 32.5865 5.30707 33.3097 4.81454 33.3097C4.32202 33.3097 3.91995 32.5865 3.91995 31.6948C3.91995 30.8031 4.32202 30.0798 4.81454 30.0798C5.30707 30.0798 5.70913 30.8031 5.70913 31.6948Z" fill="#64CC5C"/>
<path d="M11.0818 36.3266C11.0818 37.2183 10.6797 37.9416 10.1872 37.9416C9.69464 37.9416 9.29257 37.2183 9.29257 36.3266C9.29257 35.4349 9.69464 34.7117 10.1872 34.7117C10.6797 34.7117 11.0818 35.4349 11.0818 36.3266Z" fill="#64CC5C"/>
<path d="M4.70398 43.0986C4.70398 43.9903 4.30191 44.7136 3.80939 44.7136C3.31686 44.7136 2.91479 43.9903 2.91479 43.0986C2.91479 42.2069 3.31686 41.4836 3.80939 41.4836C4.30191 41.4836 4.70398 42.2069 4.70398 43.0986Z" fill="#64CC5C"/>
<path d="M10.6494 48.2852C10.6494 49.1769 10.2474 49.9002 9.75485 49.9002C9.26232 49.9002 8.86026 49.1769 8.86026 48.2852C8.86026 47.3936 9.26232 46.6703 9.75485 46.6703C10.2524 46.6703 10.6494 47.3936 10.6494 48.2852Z" fill="#64CC5C"/>
<path d="M16.3338 43.8267C16.3338 44.7184 15.9318 45.4417 15.4392 45.4417C14.9467 45.4417 14.5446 44.7184 14.5446 43.8267C14.5446 42.9351 14.9467 42.2118 15.4392 42.2118C15.9368 42.2118 16.3338 42.9351 16.3338 43.8267Z" fill="#64CC5C"/>
<path d="M13.9214 28.9454C13.9214 29.8371 13.5193 30.5604 13.0268 30.5604C12.5342 30.5604 12.1322 29.8371 12.1322 28.9454C12.1322 28.0537 12.5342 27.3304 13.0268 27.3304C13.5193 27.3304 13.9214 28.0488 13.9214 28.9454Z" fill="#64CC5C"/>
<path d="M6.79977 22.2776C6.79977 23.1693 6.39771 23.8925 5.90518 23.8925C5.41265 23.8925 5.01059 23.1693 5.01059 22.2776C5.01059 21.3859 5.41265 20.6626 5.90518 20.6626C6.39771 20.6626 6.79977 21.3859 6.79977 22.2776Z" fill="#64CC5C"/>
<path d="M13.7355 16.541C13.7355 17.4327 13.3334 18.1559 12.8409 18.1559C12.3484 18.1559 11.9463 17.4327 11.9463 16.541C11.9463 15.6493 12.3484 14.926 12.8409 14.926C13.3384 14.926 13.7355 15.6493 13.7355 16.541Z" fill="#64CC5C"/>
<path d="M9.28769 10.8093C9.28769 11.701 8.88562 12.4242 8.3931 12.4242C7.90057 12.4242 7.4985 11.701 7.4985 10.8093C7.4985 9.9176 7.90057 9.19434 8.3931 9.19434C8.89065 9.19434 9.28769 9.9176 9.28769 10.8093Z" fill="#64CC5C"/>
<path d="M18.1279 53.8187C18.1279 54.7104 17.7258 55.4337 17.2333 55.4337C16.7408 55.4337 16.3387 54.7104 16.3387 53.8187C16.3387 52.927 16.7408 52.2037 17.2333 52.2037C17.7258 52.2087 18.1279 52.927 18.1279 53.8187Z" fill="#64CC5C"/>
<path d="M37.3416 65.4255C38.8192 55.9141 37.8694 37.0795 33.899 30.7683C29.0642 23.0899 22.7367 28.1626 23.7419 35.5835C24.9631 44.6094 24.556 53.997 21.9778 63.5084C19.1483 73.956 35.3464 77.285 37.3416 65.4255Z" fill="#48B53C"/>
<path d="M27.9233 27.0331C27.9233 27.0331 32.8737 26.934 33.0496 23.7041C33.0496 23.7041 30.9639 23.2929 29.9487 24.1153C28.9334 24.9376 28.5163 25.5866 28.5163 25.5866C28.5163 25.5866 29.4712 24.0013 27.2046 21.4749C27.2046 21.4749 25.2948 23.7685 26.8477 26.0572C26.8477 26.0572 24.5208 24.4125 22.616 26.2355C22.616 26.2306 23.9378 28.2567 27.9233 27.0331Z" fill="#FFC82C"/>
<path d="M37.045 66.7928C37.045 66.7928 33.9542 71.2859 31.8936 70.9144C31.8936 70.9144 33.9693 63.9295 32.562 57.4597C32.562 57.4597 32.5369 69.8196 28.9987 70.959C28.9987 70.959 27.2397 65.0441 27.8378 60.972C27.8378 60.972 26.2195 68.1699 26.516 70.9292C26.516 70.9292 25.2344 71.4643 22.1637 68.5564C22.1637 68.5564 23.5458 72.6928 29.0892 72.99C29.0892 72.995 35.1503 73.3319 37.045 66.7928Z" fill="#64CC5C"/>
<path d="M33.2153 48.0376C33.2153 48.7856 33.552 49.39 33.9641 49.39C34.3762 49.39 34.713 48.7856 34.713 48.0376C34.713 47.2896 34.3762 46.6852 33.9641 46.6852C33.552 46.6852 33.2153 47.2896 33.2153 48.0376Z" fill="#64CC5C"/>
<path d="M28.7122 51.9214C28.7122 52.6694 29.0489 53.2738 29.461 53.2738C29.8731 53.2738 30.2098 52.6694 30.2098 51.9214C30.2098 51.1734 29.8731 50.569 29.461 50.569C29.0489 50.564 28.7122 51.1734 28.7122 51.9214Z" fill="#64CC5C"/>
<path d="M34.0598 57.5985C34.0598 58.3465 34.3965 58.9509 34.8086 58.9509C35.2207 58.9509 35.5574 58.3465 35.5574 57.5985C35.5574 56.8505 35.2207 56.2461 34.8086 56.2461C34.3965 56.2461 34.0598 56.8505 34.0598 57.5985Z" fill="#64CC5C"/>
<path d="M29.0741 61.943C29.0741 62.691 29.4109 63.2954 29.823 63.2954C30.2351 63.2954 30.5718 62.691 30.5718 61.943C30.5718 61.1949 30.2351 60.5906 29.823 60.5906C29.4109 60.5906 29.0741 61.1949 29.0741 61.943Z" fill="#64CC5C"/>
<path d="M24.3097 58.2078C24.3097 58.9558 24.6464 59.5602 25.0585 59.5602C25.4756 59.5602 25.8074 58.9558 25.8074 58.2078C25.8074 57.4597 25.4706 56.8554 25.0585 56.8554C24.6414 56.8504 24.3097 57.4597 24.3097 58.2078Z" fill="#64CC5C"/>
<path d="M26.3352 45.729C26.3352 46.477 26.6719 47.0814 27.084 47.0814C27.5012 47.0814 27.8329 46.477 27.8329 45.729C27.8329 44.981 27.4961 44.3766 27.084 44.3766C26.6719 44.3766 26.3352 44.9859 26.3352 45.729Z" fill="#64CC5C"/>
<path d="M32.3007 40.146C32.3007 40.894 32.6375 41.4984 33.0496 41.4984C33.4617 41.4984 33.7984 40.894 33.7984 40.146C33.7984 39.398 33.4617 38.7936 33.0496 38.7936C32.6375 38.7936 32.3007 39.398 32.3007 40.146Z" fill="#64CC5C"/>
<path d="M26.4858 35.3358C26.4858 36.0838 26.8225 36.6882 27.2347 36.6882C27.6468 36.6882 27.9835 36.0838 27.9835 35.3358C27.9835 34.5878 27.6468 33.9834 27.2347 33.9834C26.8225 33.9834 26.4858 34.5878 26.4858 35.3358Z" fill="#64CC5C"/>
<path d="M30.215 30.5306C30.215 31.2787 30.5517 31.883 30.9638 31.883C31.3759 31.883 31.7127 31.2787 31.7127 30.5306C31.7127 29.7826 31.3759 29.1782 30.9638 29.1782C30.5517 29.1782 30.215 29.7826 30.215 30.5306Z" fill="#64CC5C"/>
<path d="M22.8069 66.5848C22.8069 67.3329 23.1436 67.9372 23.5557 67.9372C23.9678 67.9372 24.3045 67.3329 24.3045 66.5848C24.3045 65.8368 23.9678 65.2324 23.5557 65.2324C23.1436 65.2324 22.8069 65.8368 22.8069 66.5848Z" fill="#64CC5C"/>
</svg>
