<svg width="605" height="210" viewBox="0 0 605 210" fill="none" xmlns="http://www.w3.org/2000/svg">
<g clip-path="url(#clip0_2_48)">
<path d="M27.626 47L34.846 21.654H28.766L24.358 39.97L19.57 21.654H15.352L10.526 39.97L6.08 21.654H0.038L7.296 47H13.034L17.442 29.596L21.888 47H27.626ZM64.4935 47V42.25H51.9535V36.512H64.2275V31.762H51.9535V26.404H64.4935V21.654H46.5575V47H64.4935ZM109.042 47.456C114.628 47.456 117.82 44.378 119.644 41.224L115.008 38.982C113.944 41.072 111.664 42.668 109.042 42.668C104.444 42.668 101.1 39.134 101.1 34.346C101.1 29.558 104.444 26.024 109.042 26.024C111.664 26.024 113.944 27.658 115.008 29.71L119.644 27.43C117.858 24.276 114.628 21.236 109.042 21.236C101.442 21.236 95.5518 26.556 95.5518 34.346C95.5518 42.136 101.442 47.456 109.042 47.456ZM152.542 47L146.842 37.348C149.578 36.702 152.39 34.308 152.39 29.824C152.39 25.112 149.16 21.654 143.878 21.654H132.022V47H137.418V37.994H141.37L146.348 47H152.542ZM143.08 33.244H137.418V26.404H143.08C145.246 26.404 146.88 27.696 146.88 29.824C146.88 31.952 145.246 33.244 143.08 33.244ZM183.543 47V42.25H171.003V36.512H183.277V31.762H171.003V26.404H183.543V21.654H165.607V47H183.543ZM220.564 47L210.798 21.654H204.034L194.23 47H200.386L201.982 42.706H212.85L214.408 47H220.564ZM211.368 37.956H203.464L207.416 27.05L211.368 37.956ZM240.908 47V26.404H248.28V21.654H228.064V26.404H235.474V47H240.908ZM278.842 47V42.25H266.302V36.512H278.576V31.762H266.302V26.404H278.842V21.654H260.906V47H278.842ZM26.144 117L16.378 91.654H9.614L-0.19 117H5.966L7.562 112.706H18.43L19.988 117H26.144ZM16.948 107.956H9.044L12.996 97.05L16.948 107.956ZM65.1252 117V91.654H57.5252L51.3692 106.968L45.2132 91.654H37.6512V117H43.0472V99.254L50.1912 117H52.5472L59.6912 99.254V117H65.1252ZM102.962 117L93.1957 91.654H86.4317L76.6277 117H82.7837L84.3797 112.706H95.2477L96.8057 117H102.962ZM93.7657 107.956H85.8617L89.8137 97.05L93.7657 107.956ZM132.861 117V112.25H120.625L132.595 95.986V91.654H113.557V96.404H125.527L113.557 112.63V117H132.861ZM151.52 117V91.654H146.124V117H151.52ZM188.404 117V91.654H183.008V107.576L171.266 91.654H165.718V117H171.114V100.47L183.198 117H188.404ZM214.843 117.494C219.441 117.494 223.051 115.594 225.635 112.706V102.978H213.551V107.69H220.239V110.73C219.213 111.68 217.085 112.668 214.843 112.668C210.245 112.668 206.901 109.134 206.901 104.346C206.901 99.558 210.245 96.024 214.843 96.024C217.541 96.024 219.707 97.544 220.847 99.33L225.331 96.898C223.431 93.896 220.125 91.236 214.843 91.236C207.433 91.236 201.353 96.328 201.353 104.346C201.353 112.326 207.433 117.494 214.843 117.494ZM12.502 187C20.444 187 25.954 181.984 25.954 174.346C25.954 166.708 20.444 161.654 12.502 161.654H2.508V187H12.502ZM12.502 182.25H7.904V166.404H12.502C17.708 166.404 20.444 169.862 20.444 174.346C20.444 178.64 17.518 182.25 12.502 182.25ZM44.3461 187V161.654H38.9501V187H44.3461ZM70.8185 187.494C75.4165 187.494 79.0265 185.594 81.6105 182.706V172.978H69.5265V177.69H76.2145V180.73C75.1885 181.68 73.0605 182.668 70.8185 182.668C66.2205 182.668 62.8765 179.134 62.8765 174.346C62.8765 169.558 66.2205 166.024 70.8185 166.024C73.5165 166.024 75.6825 167.544 76.8225 169.33L81.3065 166.898C79.4065 163.896 76.1005 161.236 70.8185 161.236C63.4085 161.236 57.3285 166.328 57.3285 174.346C57.3285 182.326 63.4085 187.494 70.8185 187.494ZM100.457 187V161.654H95.0607V187H100.457ZM125.941 187V166.404H133.313V161.654H113.097V166.404H120.507V187H125.941ZM167.126 187L157.36 161.654H150.596L140.792 187H146.948L148.544 182.706H159.412L160.97 187H167.126ZM157.93 177.956H150.026L153.978 167.05L157.93 177.956ZM194.745 187V182.25H184.029V161.654H178.633V187H194.745ZM244.516 187V182.25H231.976V176.512H244.25V171.762H231.976V166.404H244.516V161.654H226.58V187H244.516ZM280.891 187L271.695 173.966L280.321 161.654H273.823L268.085 170.318L262.271 161.654H255.849L264.475 174.004L255.279 187H261.701L268.085 177.728L274.431 187H280.891ZM297.846 187V177.994H304.306C309.778 177.994 312.818 174.232 312.818 169.824C312.818 165.378 309.816 161.654 304.306 161.654H292.45V187H297.846ZM303.584 173.244H297.846V166.404H303.584C305.712 166.404 307.308 167.696 307.308 169.824C307.308 171.914 305.712 173.244 303.584 173.244ZM343.266 187V182.25H330.726V176.512H343V171.762H330.726V166.404H343.266V161.654H325.33V187H343.266ZM377.171 187L371.471 177.348C374.207 176.702 377.019 174.308 377.019 169.824C377.019 165.112 373.789 161.654 368.507 161.654H356.651V187H362.047V177.994H365.999L370.977 187H377.171ZM367.709 173.244H362.047V166.404H367.709C369.875 166.404 371.509 167.696 371.509 169.824C371.509 171.952 369.875 173.244 367.709 173.244ZM395.631 187V161.654H390.235V187H395.631ZM427.766 187V182.25H415.226V176.512H427.5V171.762H415.226V166.404H427.766V161.654H409.83V187H427.766ZM463.837 187V161.654H458.441V177.576L446.699 161.654H441.151V187H446.547V170.47L458.631 187H463.837ZM490.275 187.456C495.861 187.456 499.053 184.378 500.877 181.224L496.241 178.982C495.177 181.072 492.897 182.668 490.275 182.668C485.677 182.668 482.333 179.134 482.333 174.346C482.333 169.558 485.677 166.024 490.275 166.024C492.897 166.024 495.177 167.658 496.241 169.71L500.877 167.43C499.091 164.276 495.861 161.236 490.275 161.236C482.675 161.236 476.785 166.556 476.785 174.346C476.785 182.136 482.675 187.456 490.275 187.456ZM531.191 187V182.25H518.651V176.512H530.925V171.762H518.651V166.404H531.191V161.654H513.255V187H531.191ZM553.582 187.456C560.422 187.456 563.728 183.96 563.728 179.324C563.728 169.862 549.174 172.56 549.174 168.532C549.174 167.012 550.466 165.986 552.784 165.986C555.368 165.986 558.104 166.86 560.156 168.76L563.158 164.808C560.65 162.49 557.306 161.274 553.278 161.274C547.312 161.274 543.664 164.77 543.664 168.988C543.664 178.526 558.256 175.448 558.256 179.932C558.256 181.376 556.812 182.744 553.848 182.744C550.352 182.744 547.578 181.186 545.792 179.324L542.866 183.428C545.222 185.822 548.718 187.456 553.582 187.456Z" fill="white"/>
<circle cx="581" cy="184" r="5" fill="#EE6C8A"/>
</g>
<defs>
<clipPath id="clip0_2_48">
<rect width="605" height="210" fill="white"/>
</clipPath>
</defs>
</svg>
