<svg width="12" height="156" viewBox="0 0 12 156" fill="none" xmlns="http://www.w3.org/2000/svg">
<path d="M11.5 151.736C11.5 148.392 9.388 146.072 6.172 146.072C2.956 146.072 0.827999 148.392 0.827999 151.736L0.827999 155.944H11.5L11.5 151.736ZM9.5 151.736L9.5 153.672H2.828V151.736C2.828 149.544 4.284 148.392 6.172 148.392C7.98 148.392 9.5 149.624 9.5 151.736ZM11.5 139.965H0.827999L0.827999 142.237H11.5V139.965ZM11.708 130.457C11.708 128.521 10.908 127.001 9.692 125.913H5.596V131.001H7.58V128.185H8.86C9.26 128.617 9.676 129.513 9.676 130.457C9.676 132.393 8.188 133.801 6.172 133.801C4.156 133.801 2.668 132.393 2.668 130.457C2.668 129.321 3.308 128.409 4.06 127.929L3.036 126.041C1.772 126.841 0.651999 128.233 0.651999 130.457C0.651999 133.577 2.796 136.137 6.172 136.137C9.532 136.137 11.708 133.577 11.708 130.457ZM11.5 119.615H0.827999V121.887H11.5V119.615ZM11.5 110.522H2.828V107.418H0.827999L0.827999 115.93H2.828L2.828 112.81H11.5V110.522ZM11.5 94.8184L0.827999 98.9304L0.827999 101.778L11.5 105.906L11.5 103.314L9.692 102.642V98.0664L11.5 97.4104V94.8184ZM7.692 98.6904V102.018L3.1 100.354L7.692 98.6904ZM11.5 84.8267H9.5V89.3387H0.827999L0.827999 91.6107H11.5V84.8267ZM11.5 64.7455L0.827999 68.8575L0.827999 71.7055L11.5 75.8335L11.5 73.2415L9.692 72.5695V67.9935L11.5 67.3375L11.5 64.7455ZM7.692 68.6175V71.9455L3.1 70.2815L7.692 68.6175ZM11.708 56.9166C11.708 54.9806 10.908 53.4606 9.692 52.3726H5.596L5.596 57.4606H7.58L7.58 54.6446H8.86C9.26 55.0766 9.676 55.9726 9.676 56.9166C9.676 58.8526 8.188 60.2606 6.172 60.2606C4.156 60.2606 2.668 58.8526 2.668 56.9166C2.668 55.7806 3.308 54.8686 4.06 54.3886L3.036 52.5006C1.772 53.3006 0.651999 54.6926 0.651999 56.9166C0.651999 60.0366 2.796 62.5966 6.172 62.5966C9.532 62.5966 11.708 60.0366 11.708 56.9166ZM11.5 40.7948H9.5L9.5 46.0748H7.084L7.084 40.9068H5.084L5.084 46.0748H2.828L2.828 40.7948H0.827999L0.827999 48.3468H11.5L11.5 40.7948ZM11.5 27.2444H0.827999L0.827999 29.5164H7.532L0.827999 34.4604L0.827999 36.7964H11.5L11.5 34.5244H4.54L11.5 29.4364V27.2444ZM11.692 17.75C11.692 15.398 10.396 14.054 9.068 13.286L8.124 15.238C9.004 15.686 9.676 16.646 9.676 17.75C9.676 19.686 8.188 21.094 6.172 21.094C4.156 21.094 2.668 19.686 2.668 17.75C2.668 16.646 3.356 15.686 4.22 15.238L3.26 13.286C1.932 14.038 0.651999 15.398 0.651999 17.75C0.651999 20.95 2.892 23.43 6.172 23.43C9.452 23.43 11.692 20.95 11.692 17.75ZM11.5 4.83836H7.132L0.827999 0.758364L0.827999 3.35036L5.116 5.97436L0.827999 8.63036L0.827999 11.2224L7.132 7.11036H11.5V4.83836Z" fill="white"/>
</svg>
