<svg width="199" height="88" viewBox="0 0 199 88" fill="none" xmlns="http://www.w3.org/2000/svg">
<path fill-rule="evenodd" clip-rule="evenodd" d="M181.728 41.6085C180.856 43.8536 178.61 46.1394 176.504 46.9252C175.301 47.3746 174.25 47.3425 173.293 46.8276C171.877 46.0647 171.566 45.1498 171.456 44.5276C171.026 42.1224 172.935 38.6212 174.89 36.3868C177.204 33.7391 180.126 32.3535 183.164 32.3535C183.85 32.3535 184.541 32.4236 185.232 32.5659C183.258 37.6585 181.745 41.5643 181.728 41.6085ZM148.718 10.9568C150.819 10.0622 153.638 9.88179 154.534 11.148C154.989 11.793 155.086 12.4792 154.851 13.3738C154.094 16.2421 150.289 19.549 147.896 20.6571C147.849 20.679 147.802 20.7023 147.757 20.7273C147.704 20.7567 144.541 22.4448 139.881 22.2532C141.805 17.3008 144.366 12.8101 148.718 10.9568ZM198.553 10.7342C199.009 9.55853 198.436 8.23188 197.274 7.77035C196.113 7.30882 194.8 7.88675 194.343 9.06243L186.88 28.2571C181.327 26.8227 175.598 28.6719 171.501 33.3558C169.154 36.0391 166.875 40.0434 166.876 43.8236C166.852 43.8551 166.824 43.88 166.802 43.9126C166.425 44.4626 163.033 49.2263 160.042 47.3105C159.179 46.757 159.762 44.6567 160.433 42.5529C160.536 42.2311 160.633 41.9226 160.721 41.6308C160.762 41.4931 160.803 41.3548 160.842 41.21C161.177 39.9931 160.472 38.732 159.269 38.394C158.066 38.056 156.819 38.7676 156.485 39.985C155.583 43.2681 152.76 47.9866 148.684 47.5184C147.663 47.402 146.932 46.9415 146.447 46.1104C145.675 44.7853 145.635 42.6413 146.35 40.8974C148.518 35.6071 153.849 33.1678 159.026 35.0972C160.196 35.5334 161.498 34.9275 161.93 33.7416C162.362 32.5563 161.762 31.2413 160.59 30.8047C153.05 27.9954 145.305 31.5031 142.172 39.1448C141.211 41.4895 141.07 44.1606 141.714 46.4332C141.682 46.45 141.649 46.4596 141.618 46.4784C140.551 47.1113 139.303 47.5128 138.074 47.6333C136.308 47.8061 134.257 47.1326 133.765 45.2443C133.166 42.9443 133.623 40.2483 134.202 37.9864C134.733 35.9115 138.109 26.7292 138.3 26.7485C144.574 27.3935 149.137 25.157 149.839 24.789C153.027 23.2901 158.007 19.1541 159.221 14.553C159.804 12.344 159.456 10.2473 158.214 8.48908C155.774 5.03471 150.67 5.16179 146.963 6.74055C140.827 9.35369 137.597 15.4014 135.333 21.4801C133.242 20.8477 131 19.7752 128.701 18.0587C127.697 17.3085 126.281 17.524 125.538 18.5401C124.796 19.5562 125.009 20.9885 126.015 21.7388C128.713 23.7542 131.355 25.0432 133.84 25.8244C133.685 26.3012 133.534 26.7729 133.384 27.238L133.299 27.5043C133.016 28.3847 131.653 31.5971 130.158 35.1989C130.154 35.2065 130.151 35.2141 130.148 35.2218C129.168 37.5808 128.154 39.832 127.406 41.0712C125.645 43.9873 122.437 47.3319 119.962 47.7868C119.178 47.9311 118.549 47.7736 117.921 47.2775C117.185 46.6965 118.073 43.846 118.5 42.4761C118.626 42.069 118.746 41.6842 118.846 41.3325C118.853 41.306 118.86 41.2801 118.867 41.2547C118.872 41.239 118.876 41.2237 118.88 41.2085C119.214 39.9916 118.51 38.7305 117.307 38.3925C116.104 38.054 114.857 38.7661 114.522 39.9835C114.52 39.9906 114.518 39.9982 114.516 40.0058C113.607 43.2879 110.789 47.983 106.721 47.5184C105.7 47.402 104.968 46.9415 104.484 46.1099C103.711 44.7848 103.672 42.6413 104.387 40.8974C106.62 35.4505 111.398 33.1733 116.561 35.0972C117.732 35.5339 119.033 34.927 119.464 33.7416C119.897 32.5563 119.296 31.2413 118.124 30.8047C110.719 28.0457 103.354 31.4751 100.209 39.1443C98.9452 42.2245 99.094 45.871 100.588 48.4333C101.791 50.498 103.789 51.7876 106.215 52.0641C108.983 52.3792 111.622 51.4892 113.902 49.4809C114.204 49.9913 114.607 50.4645 115.137 50.8833C116.416 51.8938 117.884 52.4112 119.439 52.4112C119.877 52.4112 120.322 52.3701 120.771 52.2877C124.375 51.6254 127.459 48.5309 129.343 46.174C129.735 47.8824 130.48 49.1912 131.589 50.1122C133.249 51.6259 135.335 52.2384 137.443 52.2384C139.744 52.2379 142.072 51.509 143.9 50.4269C143.968 50.3872 144.024 50.3359 144.086 50.2906C145.202 51.2661 146.597 51.8836 148.178 52.0641C150.959 52.3823 153.613 51.4801 155.903 49.4479C156.294 50.0929 156.85 50.6805 157.62 51.1741C158.717 51.8775 160.08 52.3299 161.584 52.3299C163.769 52.3299 166.25 51.3692 168.649 48.843C169.316 49.6339 170.152 50.3181 171.166 50.8645C172.339 51.4968 173.602 51.814 174.908 51.814C175.941 51.814 177.004 51.6153 178.07 51.2173C179.559 50.6617 181.01 49.7203 182.283 48.5411C182.529 49.1246 182.842 49.6888 183.247 50.2012C184.328 51.567 185.866 52.3584 187.694 52.4911C187.929 52.5078 188.16 52.516 188.388 52.516C194.386 52.5154 197.864 46.8393 198.015 46.5882C198.661 45.5127 198.323 44.1159 197.262 43.4571C196.201 42.7989 194.811 43.1354 194.155 44.2054C194.13 44.245 191.662 48.1944 188.016 47.9276C187.295 47.8757 186.987 47.6043 186.781 47.3456C184.771 44.826 186.641 41.4651 187.621 38.9379C188.852 35.7626 190.083 32.5868 191.314 29.4115C192.667 25.9195 194.02 22.428 195.374 18.9365C196.301 16.544 197.229 14.152 198.155 11.7599C198.288 11.4179 198.421 11.0763 198.553 10.7342Z" fill="white"/>
<path fill-rule="evenodd" clip-rule="evenodd" d="M85.7874 68.2993C82.1172 78.0156 75.4495 83.1028 65.969 83.4196C61.0208 83.5886 56.6659 81.9351 53.7051 78.7752C50.9237 75.8061 49.6173 71.6649 50.0279 67.1149C50.4002 62.9903 52.6174 56.7812 57.6423 52.8572C60.7412 50.438 64.4808 49.2216 68.7999 49.2216C70.1627 49.2216 71.5839 49.3429 73.059 49.5856C79.1831 50.5924 82.481 52.809 86.9361 55.8765C87.658 60.2965 87.2671 64.3819 85.7874 68.2993ZM103.889 8.57741C105.111 10.1335 105.798 12.0688 105.864 14.2235C105.958 17.3352 104.708 19.5559 102.742 20.7896C101.296 21.6968 99.5001 21.9522 98.166 21.4419C97.2471 21.0901 96.6542 20.42 96.3529 19.3944C95.0647 15.0079 99.0336 11.8404 100.24 10.8595C101.363 9.94616 102.589 9.18462 103.889 8.57741ZM152.198 58.7749C145.285 66.3031 134.842 68.7436 121.157 66.0258C107.735 63.3604 96.7695 56.8401 95.5629 56.1055C93.8596 55.0677 92.387 54.0853 90.9955 53.1349C90.0861 49.0632 88.408 44.7909 85.956 40.281C85.4643 39.3773 84.9539 38.4721 84.4401 37.5618C80.6258 30.8008 77.0227 24.4145 79.8762 16.5797C82.712 9.60954 88.5707 4.90065 94.8122 4.5808C95.2677 4.55694 95.7463 4.56912 96.2329 4.61583C97.4617 4.73311 98.699 5.06159 99.8578 5.56827C99.0013 6.08714 98.1771 6.6654 97.3922 7.30358C92.6938 11.124 90.5965 15.8948 92.0051 20.691C92.7049 23.0737 94.321 24.8577 96.5559 25.7132C99.2058 26.7276 102.494 26.3275 105.139 24.6683C108.491 22.5644 110.54 18.841 110.396 14.0839C110.319 11.5555 109.62 9.17952 108.393 7.13502C113.264 6.21711 118.631 7.10355 123.366 9.8441C124.451 10.4731 125.838 10.0959 126.461 9.00132C127.084 7.90723 126.71 6.51056 125.624 5.88254C119.096 2.10273 111.525 1.27468 104.952 3.2943C104.795 3.1755 104.636 3.05974 104.474 2.94652C102.15 1.32951 99.4487 0.333407 96.6627 0.0668663C95.9579 -0.000149674 95.2581 -0.0169037 94.5815 0.017112C86.5812 0.427839 79.1552 6.26534 75.6634 14.8891C75.6539 14.9129 75.6448 14.9368 75.6362 14.9607C72.0275 24.8059 76.5274 32.7824 80.4984 39.8201C81.0001 40.7095 81.4994 41.5939 81.9795 42.4768C83.2531 44.8183 84.295 47.0598 85.1081 49.217C81.971 47.3304 78.6424 45.8738 73.7898 45.0757C66.3427 43.8517 59.9772 45.2544 54.8657 49.2454C48.6891 54.0681 45.9671 61.6632 45.5127 66.7016C44.9827 72.5746 46.7218 77.9765 50.4086 81.9117C54.1024 85.8555 59.3621 88 65.2892 88C65.5648 88 65.8414 87.9954 66.1195 87.9863C77.4388 87.6081 85.7051 81.3624 90.0252 69.925C91.329 66.4736 91.9164 62.8837 91.7829 59.1227C92.2459 59.4167 92.724 59.7147 93.2177 60.0157C94.4933 60.793 106.095 67.6921 120.28 70.5088C135.397 73.5103 147.585 70.5266 155.526 61.8785C156.376 60.9519 156.321 59.5065 155.402 58.65C154.482 57.793 153.049 57.8484 152.198 58.7749Z" fill="white"/>
<mask id="mask0_2_22" style="mask-type:alpha" maskUnits="userSpaceOnUse" x="0" y="8" width="20" height="28">
<path fill-rule="evenodd" clip-rule="evenodd" d="M0 8.64648H19.6166V35.1059H0V8.64648Z" fill="white"/>
</mask>
<g mask="url(#mask0_2_22)">
<path fill-rule="evenodd" clip-rule="evenodd" d="M6.69968 31.6001C9.31569 31.6001 11.5487 30.6522 13.4002 28.7558C14.3366 27.7967 15.0365 26.752 15.4995 25.6214C15.9615 24.4923 16.193 23.2432 16.193 21.8765C16.193 19.2082 15.2616 16.921 13.4002 15.0129C11.5378 13.1058 9.30477 12.1528 6.69968 12.1528H3.43886V31.6001H6.69968ZM6.69996 8.64648C10.2519 8.64648 13.2927 9.94246 15.8222 12.5329C17.092 13.834 18.0418 15.2536 18.6722 16.7913C19.3016 18.3294 19.6166 20.0238 19.6166 21.8765C19.6166 25.5257 18.3513 28.6459 15.8222 31.2363C13.3036 33.816 10.2628 35.1059 6.69996 35.1059H1.72725C1.49079 35.1059 1.26724 35.0591 1.0576 34.965C0.847466 34.8719 0.664157 34.7477 0.508169 34.593C0.352679 34.4388 0.228486 34.2536 0.137079 34.0389C0.0451759 33.8242 -3.05176e-05 33.5952 -3.05176e-05 33.353V10.3994C-3.05176e-05 10.1572 0.0451759 9.92822 0.137079 9.71298C0.228486 9.49826 0.352679 9.31406 0.508169 9.15887C0.664157 9.00521 0.847466 8.88105 1.0576 8.78692C1.26724 8.69381 1.49079 8.64648 1.72725 8.64648H6.69996Z" fill="white"/>
</g>
<path fill-rule="evenodd" clip-rule="evenodd" d="M25.5484 33.8546V27.178C25.5484 26.7225 25.6863 26.3371 25.9625 26.0215C26.2388 25.7064 26.5714 25.5483 26.9609 25.5483C27.3503 25.5483 27.6826 25.7064 27.9592 26.0215C28.2354 26.3371 28.3779 26.7225 28.3871 27.178V33.8546C28.3779 34.3097 28.2354 34.695 27.9592 35.0102C27.6826 35.3263 27.3503 35.4838 26.9609 35.4838C26.5714 35.4838 26.2388 35.3263 25.9625 35.0102C25.6863 34.695 25.5484 34.3097 25.5484 33.8546Z" fill="white"/>
<path fill-rule="evenodd" clip-rule="evenodd" d="M61.0323 33.8546V27.178C61.0323 26.7225 61.1702 26.3371 61.4464 26.0215C61.7226 25.7064 62.0552 25.5483 62.4447 25.5483C62.8342 25.5483 63.1664 25.7064 63.443 26.0215C63.7193 26.3371 63.8618 26.7225 63.871 27.178V33.8546C63.8618 34.3097 63.7193 34.695 63.443 35.0102C63.1664 35.3263 62.8342 35.4838 62.4447 35.4838C62.0552 35.4838 61.7226 35.3263 61.4464 35.0102C61.1702 34.695 61.0323 34.3097 61.0323 33.8546Z" fill="white"/>
<path fill-rule="evenodd" clip-rule="evenodd" d="M44.7098 20.5547C43.8967 20.5547 43.1389 20.7119 42.4363 21.0267C41.7332 21.3415 41.1239 21.7657 40.6073 22.2988C40.0908 22.8335 39.6822 23.4595 39.3796 24.1783C39.078 24.8976 38.9269 25.6621 38.9269 26.4711C38.9269 27.2797 39.078 28.0441 39.3796 28.7629C39.6822 29.4822 40.0908 30.1093 40.6073 30.6424C41.1239 31.1766 41.7332 31.6003 42.4363 31.9151C43.1389 32.2299 43.8967 32.387 44.7098 32.387C45.5112 32.387 46.2635 32.2299 46.9665 31.9151C47.6696 31.6003 48.282 31.1735 48.8036 30.6341C49.3247 30.0947 49.7373 29.4682 50.0389 28.7546C50.3406 28.0415 50.4921 27.2797 50.4921 26.4711C50.4921 25.6621 50.3406 24.9002 50.0389 24.1871C49.7373 23.4735 49.3247 22.8465 48.8036 22.3076C48.282 21.7683 47.6696 21.3415 46.9665 21.0267C46.2635 20.7119 45.5112 20.5547 44.7098 20.5547ZM50.492 33.8366C48.8446 35.2187 46.9168 35.9095 44.7097 35.9095C42.1614 35.9095 39.9868 34.9884 38.1857 33.1458C36.3842 31.3026 35.4839 29.0777 35.4839 26.4711C35.4839 23.864 36.3842 21.6391 38.1857 19.796C39.9868 17.9533 42.1614 17.0322 44.7097 17.0322C47.2356 17.0322 49.4098 17.9533 51.2337 19.796C53.0347 21.6391 53.9355 23.864 53.9355 26.4711V35.8421C53.9355 36.6511 53.8143 37.4156 53.5725 38.1349C53.3313 38.8537 52.9967 39.5139 52.5679 40.115C52.1395 40.7161 51.6341 41.258 51.0527 41.7414C50.4697 42.2247 49.8417 42.6318 49.166 42.9638C48.4908 43.2952 47.7846 43.5508 47.0491 43.7308C46.3131 43.9102 45.5775 44 44.8415 44C43.962 44 43.1002 43.8848 42.2547 43.6551C41.4087 43.4243 40.6073 43.0841 39.8494 42.635C39.0916 42.1853 38.3966 41.6294 37.7655 40.9666C37.1339 40.3032 36.5981 39.5616 36.1591 38.7412C35.9832 38.4829 35.895 38.1681 35.895 37.7973C35.895 37.2916 36.0608 36.8731 36.3897 36.5422C36.7192 36.2103 37.1314 36.0448 37.6251 36.0448C37.9551 36.0448 38.2268 36.1232 38.4407 36.2808C38.6551 36.4374 38.9486 36.786 39.3222 37.3258C39.6953 37.8647 40.0253 38.2749 40.3107 38.5555C41.5628 39.837 43.0729 40.4775 44.8415 40.4775C46.6208 40.4775 48.1248 39.8479 49.3555 38.5897C50.1129 37.6458 50.492 36.7299 50.492 35.8421V33.8366Z" fill="white"/>
<path fill-rule="evenodd" clip-rule="evenodd" d="M65.2903 19.8714C65.2903 20.656 65.0139 21.3248 64.4601 21.8786C63.9058 22.4323 63.2363 22.7096 62.4516 22.7096C61.667 22.7096 60.998 22.4323 60.4441 21.8786C59.8893 21.3248 59.6129 20.656 59.6129 19.8714C59.6129 19.0859 59.8893 18.4175 60.4441 17.8633C60.998 17.3096 61.667 17.0322 62.4516 17.0322C63.2363 17.0322 63.9058 17.3096 64.4601 17.8633C65.0139 18.4175 65.2903 19.0859 65.2903 19.8714Z" fill="#EE6C8A"/>
<path fill-rule="evenodd" clip-rule="evenodd" d="M29.8064 19.8714C29.8064 20.656 29.5296 21.3248 28.9758 21.8786C28.4215 22.4323 27.7521 22.7096 26.9675 22.7096C26.1834 22.7096 25.5145 22.4323 24.9602 21.8786C24.4054 21.3248 24.129 20.656 24.129 19.8714C24.129 19.0859 24.4054 18.4175 24.9602 17.8633C25.5145 17.3096 26.1834 17.0322 26.9675 17.0322C27.7521 17.0322 28.4215 17.3096 28.9758 17.8633C29.5296 18.4175 29.8064 19.0859 29.8064 19.8714Z" fill="white"/>
</svg>
