<svg width="36" height="67" viewBox="0 0 36 67" fill="none" xmlns="http://www.w3.org/2000/svg">
<path fill-rule="evenodd" clip-rule="evenodd" d="M27.6417 16.8451C28.1231 17.0669 28.6363 17.0483 28.7865 16.8035L35.9581 6.99914C36.1088 6.75439 35.8405 6.37627 35.3586 6.15494C34.8766 5.93314 34.364 5.95178 34.2138 6.19605L27.0417 16.0014C26.8915 16.2457 27.1598 16.6233 27.6417 16.8451Z" fill="#39B54A"/>
<path fill-rule="evenodd" clip-rule="evenodd" d="M24.6695 15.8574C25.1505 16.0762 25.6428 16.0389 25.7694 15.7749L31.9698 4.01839C32.0969 3.75431 31.8106 3.36243 31.3306 3.14312C30.8501 2.9238 30.3578 2.9606 30.2307 3.22567L24.0298 14.9816C23.9037 15.2462 24.1895 15.6381 24.6695 15.8574Z" fill="#39B54A"/>
<path fill-rule="evenodd" clip-rule="evenodd" d="M21.7776 14.8849C22.2939 15.0837 22.7923 15.0186 22.8894 14.7392L26.9833 1.98219C27.0809 1.70236 26.7402 1.31419 26.2233 1.11488C25.7064 0.916572 25.2085 0.981184 25.111 1.26101L21.0165 14.0181C20.9194 14.2974 21.2602 14.6861 21.7776 14.8849Z" fill="#8DC63F"/>
<path fill-rule="evenodd" clip-rule="evenodd" d="M18.8044 13.8996C19.3143 14.0886 19.7837 14.003 19.8536 13.7081L21.9912 0.974773C22.0612 0.680405 21.7052 0.288252 21.1957 0.100282C20.6863 -0.0887018 20.2169 -0.00256994 20.1465 0.291292L18.0089 13.0251C17.9385 13.3195 18.2949 13.7116 18.8044 13.8996Z" fill="#8DC63F"/>
<path fill-rule="evenodd" clip-rule="evenodd" d="M2.18929 66.7444H2.18978C3.82944 67.4048 5.70647 66.7473 6.56741 65.2114L32.2801 22.585C33.9418 19.6208 32.6149 15.8803 29.4501 14.6071L19.0366 10.4153C15.863 9.13818 12.2822 10.9197 11.4105 14.2098L0.115989 62.6304C-0.332835 64.3248 0.555025 66.0864 2.18929 66.7444Z" fill="#F23D0C"/>
<path fill-rule="evenodd" clip-rule="evenodd" d="M19.4462 10.4169L25 12.6138L2.3494 67C2.3114 66.9878 2.2739 66.9766 2.2369 66.9609H2.2364C0.566967 66.3009 -0.339997 64.5326 0.118485 62.8313L11.656 14.2263C12.5465 10.9232 16.2048 9.13489 19.4462 10.4169Z" fill="#FF7915"/>
<path fill-rule="evenodd" clip-rule="evenodd" d="M17.8606 17.1204C20.3373 18.1117 22.184 19.3093 21.9854 19.7957C21.7862 20.2815 19.6161 19.8713 17.1389 18.879C14.6622 17.8873 12.816 16.6896 13.0146 16.2043C13.2138 15.7184 15.3829 16.1291 17.8606 17.1204Z" fill="#F23D0C"/>
<path fill-rule="evenodd" clip-rule="evenodd" d="M13.8606 33.1205C16.3383 34.1117 18.184 35.3094 17.9854 35.7957C17.7857 36.2816 15.6166 35.8709 13.1399 34.8796C10.6622 33.8873 8.81598 32.6897 9.01464 32.2043C9.21432 31.7185 11.3834 32.1287 13.8606 33.1205Z" fill="#F23D0C"/>
<path fill-rule="evenodd" clip-rule="evenodd" d="M9.86011 47.1203C12.3373 48.1121 14.184 49.3102 13.9854 49.7955C13.7862 50.2819 11.6161 49.8707 9.13895 48.8799C6.66228 47.8877 4.81554 46.6906 5.01471 46.2042C5.21388 45.7184 7.38293 46.1291 9.86011 47.1203Z" fill="#F23D0C"/>
<path fill-rule="evenodd" clip-rule="evenodd" d="M19.8608 26.1207C22.3379 27.1119 24.184 28.3101 23.9854 28.796C23.7857 29.2813 21.6167 28.8711 19.1397 27.8798C16.6626 26.8875 14.8164 25.6904 15.0146 25.204C15.2142 24.7187 17.3837 25.1289 19.8608 26.1207Z" fill="#FF7915"/>
<path fill-rule="evenodd" clip-rule="evenodd" d="M11.8606 40.1205C14.3378 41.1118 16.184 42.3098 15.9854 42.7957C15.7862 43.2815 13.6166 42.8713 11.1395 41.8791C8.66228 40.8874 6.81554 39.6903 7.01471 39.2045C7.21388 38.7181 9.38344 39.1293 11.8606 40.1205Z" fill="#FF7915"/>
<path fill-rule="evenodd" clip-rule="evenodd" d="M6.00767 54.9782C8.39729 56.0185 10.1779 57.2759 9.98581 57.7853C9.79372 58.2957 7.70177 57.8647 5.31263 56.8239C2.92301 55.783 2.87805 54.7874 3.07014 54.278C3.26222 53.7676 3.61854 53.9369 6.00767 54.9782Z" fill="#FF7915"/>
</svg>
