<svg width="25" height="79" viewBox="0 0 25 79" fill="none" xmlns="http://www.w3.org/2000/svg">
<mask id="mask0_2_901" style="mask-type:alpha" maskUnits="userSpaceOnUse" x="0" y="8" width="25" height="71">
<path fill-rule="evenodd" clip-rule="evenodd" d="M0.00012207 8.05615H24.8891V78.916H0.00012207V8.05615Z" fill="white"/>
</mask>
<g mask="url(#mask0_2_901)">
<path fill-rule="evenodd" clip-rule="evenodd" d="M1.00238 67.3281C-1.24569 52.6765 0.198536 23.6643 6.24405 13.945C13.6011 2.11425 23.2319 9.93256 21.7024 21.3648C19.844 35.2687 20.4665 49.7258 24.387 64.3812C28.6896 80.4733 4.03636 85.5987 1.00238 67.3281Z" fill="#239130"/>
</g>
<path fill-rule="evenodd" clip-rule="evenodd" d="M14.8627 8.40663C14.8627 8.40663 7.27389 8.25918 7 3.37382C7 3.37382 10.1995 2.75264 11.7537 3.99626C13.3085 5.23862 13.948 6.21619 13.948 6.21619C13.948 6.21619 12.4849 3.81869 15.9596 0C15.9596 0 18.8858 3.46292 16.5087 6.92647C16.5087 6.92647 20.0731 4.43987 23 7.19251C23 7.19251 20.9781 10.2557 14.8627 8.40663Z" fill="#FFC82C"/>
<path fill-rule="evenodd" clip-rule="evenodd" d="M1 69.4161C1 69.4161 5.77542 76.3532 8.96467 75.783C8.96467 75.783 5.75783 64.9958 7.93197 55C7.93197 55 7.97299 74.0872 13.4406 75.8491C13.4406 75.8491 16.159 66.7095 15.2344 60.4266C15.2344 60.4266 17.7354 71.5429 17.2751 75.8067C17.2751 75.8067 19.2578 76.6303 24 72.1432C24 72.1432 21.8675 78.5313 13.2973 78.9956C13.2973 78.9956 3.92685 79.5081 1 69.4161Z" fill="#64CC5C"/>
<path fill-rule="evenodd" clip-rule="evenodd" d="M7 41C7 42.1043 6.55206 43 6.00028 43C5.44794 43 5 42.1043 5 41C5 39.8951 5.44794 39 6.00028 39C6.55206 39 7 39.8951 7 41Z" fill="#64CC5C"/>
<path fill-rule="evenodd" clip-rule="evenodd" d="M14 46.9994C14 48.1043 13.5526 49 13.0008 49C12.4479 49 12 48.1043 12 46.9994C12 45.8951 12.4479 45 13.0008 45C13.5526 45 14 45.8951 14 46.9994Z" fill="#64CC5C"/>
<path fill-rule="evenodd" clip-rule="evenodd" d="M6 55.9994C6 57.1043 5.55206 58 5.00028 58C4.44794 58 4 57.1043 4 55.9994C4 54.8951 4.44794 54 5.00028 54C5.55206 54 6 54.8951 6 55.9994Z" fill="#64CC5C"/>
<path fill-rule="evenodd" clip-rule="evenodd" d="M13 62C13 63.1049 12.5521 64 12.0003 64C11.4479 64 11 63.1049 11 62C11 60.8951 11.4479 60 12.0003 60C12.5521 60 13 60.8951 13 62Z" fill="#64CC5C"/>
<path fill-rule="evenodd" clip-rule="evenodd" d="M21 57.0003C21 58.1044 20.5532 59 20.0008 59C19.4485 59 19 58.1044 19 57.0003C19 55.8956 19.4485 55 20.0008 55C20.5532 55 21 55.8956 21 57.0003Z" fill="#64CC5C"/>
<path fill-rule="evenodd" clip-rule="evenodd" d="M18 37C18 38.1049 17.5515 39 16.9997 39C16.4474 39 16 38.1049 16 37C16 35.8957 16.4474 35 16.9997 35C17.5515 35 18 35.8957 18 37Z" fill="#64CC5C"/>
<path fill-rule="evenodd" clip-rule="evenodd" d="M9 28.9994C9 30.1043 8.55206 31 8.00028 31C7.44794 31 7 30.1043 7 28.9994C7 27.8951 7.44794 27 8.00028 27C8.55206 27 9 27.8951 9 28.9994Z" fill="#64CC5C"/>
<path fill-rule="evenodd" clip-rule="evenodd" d="M17 20.9997C17 22.1044 16.5525 23 16.0006 23C15.4481 23 15 22.1044 15 20.9997C15 19.8956 15.4481 19 16.0006 19C16.5525 19 17 19.8956 17 20.9997Z" fill="#64CC5C"/>
<path fill-rule="evenodd" clip-rule="evenodd" d="M12 14C12 15.1049 11.5525 16 11 16C10.4475 16 10 15.1049 10 14C10 12.8951 10.4475 12 11 12C11.5525 12 12 12.8951 12 14Z" fill="#64CC5C"/>
<path fill-rule="evenodd" clip-rule="evenodd" d="M23 70C23 71.1043 22.5521 72 21.9997 72C21.4474 72 21 71.1043 21 70C21 68.8951 21.4474 68 21.9997 68C22.5521 68 23 68.8951 23 70Z" fill="#64CC5C"/>
</svg>
