<svg width="140" height="62" viewBox="0 0 140 62" fill="none" xmlns="http://www.w3.org/2000/svg">
<path fill-rule="evenodd" clip-rule="evenodd" d="M128.036 29.3152C127.422 30.897 125.839 32.5074 124.355 33.0611C123.507 33.3777 122.767 33.3551 122.093 32.9923C121.095 32.4548 120.876 31.8102 120.798 31.3718C120.496 29.6772 121.84 27.2105 123.218 25.6363C124.849 23.7708 126.907 22.7946 129.047 22.7946C129.531 22.7946 130.018 22.844 130.505 22.9443C129.114 26.5323 128.048 29.284 128.036 29.3152ZM104.779 7.71972C106.259 7.08943 108.246 6.9623 108.876 7.85437C109.197 8.30882 109.266 8.79227 109.1 9.42256C108.567 11.4434 105.886 13.7733 104.2 14.554C104.166 14.5694 104.133 14.5859 104.101 14.6034C104.064 14.6242 101.836 15.8135 98.5529 15.6785C99.9086 12.1894 101.713 9.02541 104.779 7.71972ZM139.889 7.56286C140.211 6.73454 139.807 5.79986 138.989 5.47469C138.171 5.14952 137.246 5.5567 136.924 6.38502L131.665 19.9086C127.753 18.898 123.717 20.2008 120.831 23.5008C119.177 25.3913 117.571 28.2125 117.572 30.8759C117.555 30.8981 117.535 30.9156 117.519 30.9385C117.254 31.326 114.864 34.6823 112.757 33.3325C112.149 32.9425 112.56 31.4628 113.033 29.9806C113.105 29.7539 113.173 29.5365 113.235 29.3309C113.264 29.2339 113.293 29.1365 113.321 29.0344C113.556 28.1771 113.06 27.2886 112.213 27.0505C111.365 26.8123 110.486 27.3137 110.251 28.1714C109.615 30.4844 107.626 33.8088 104.755 33.479C104.036 33.397 103.52 33.0725 103.179 32.487C102.635 31.5534 102.606 30.0429 103.11 28.8142C104.638 25.0869 108.394 23.3683 112.041 24.7277C112.865 25.035 113.783 24.6081 114.087 23.7726C114.391 22.9375 113.969 22.0111 113.143 21.7034C107.831 19.7241 102.374 22.1955 100.167 27.5794C99.4894 29.2314 99.3899 31.1133 99.8442 32.7144C99.8215 32.7262 99.7981 32.733 99.7762 32.7463C99.0245 33.1922 98.1453 33.4751 97.2793 33.5599C96.0354 33.6817 94.5905 33.2072 94.2438 31.8768C93.8214 30.2563 94.1433 28.3569 94.5515 26.7633C94.9254 25.3014 97.3041 18.8321 97.439 18.8457C101.859 19.3001 105.074 17.7244 105.568 17.4651C107.815 16.409 111.323 13.4951 112.179 10.2534C112.589 8.69702 112.344 7.21979 111.469 5.98106C109.75 3.54731 106.154 3.63684 103.542 4.74914C99.2192 6.59022 96.9436 10.8511 95.3485 15.1338C93.8749 14.6883 92.2954 13.9327 90.6755 12.7233C89.9681 12.1947 88.9707 12.3466 88.4474 13.0625C87.9248 13.7783 88.0749 14.7875 88.783 15.3161C90.684 16.736 92.5457 17.6442 94.2962 18.1946C94.1868 18.5305 94.0806 18.8629 93.9755 19.1905L93.9149 19.3782C93.7159 19.9984 92.7557 22.2617 91.702 24.7993C91.6995 24.8047 91.6974 24.8101 91.6949 24.8155C91.0045 26.4775 90.2906 28.0636 89.7634 28.9367C88.5224 30.9912 86.2627 33.3476 84.519 33.6681C83.9666 33.7698 83.523 33.6588 83.0807 33.3093C82.5624 32.8999 83.188 30.8916 83.4886 29.9265C83.5775 29.6396 83.6621 29.3685 83.7322 29.1207C83.7372 29.1021 83.7421 29.0838 83.7474 29.0659C83.7506 29.0548 83.7535 29.0441 83.7563 29.0333C83.9917 28.176 83.4957 27.2875 82.6481 27.0494C81.8008 26.8109 80.922 27.3126 80.6861 28.1703C80.6847 28.1753 80.6833 28.1807 80.6819 28.186C80.0414 30.4984 78.0561 33.8063 75.1899 33.479C74.4705 33.397 73.9549 33.0725 73.6136 32.4867C73.0694 31.5531 73.0414 30.0429 73.5453 28.8142C75.1188 24.9766 78.4849 23.3723 82.1223 24.7277C82.9472 25.0353 83.8643 24.6078 84.1681 23.7726C84.4726 22.9375 84.0498 22.0111 83.2238 21.7034C78.0069 19.7596 72.8177 22.1758 70.6019 27.579C69.7114 29.7492 69.8162 32.3183 70.8685 34.1236C71.7165 35.5783 73.1243 36.4868 74.833 36.6816C76.7836 36.9037 78.6425 36.2766 80.2492 34.8617C80.4617 35.2212 80.746 35.5546 81.1192 35.8497C82.0206 36.5617 83.0545 36.9262 84.1504 36.9262C84.4588 36.9262 84.7721 36.8972 85.0887 36.8392C87.628 36.3726 89.801 34.1924 91.1284 32.5318C91.4042 33.7354 91.9293 34.6576 92.7104 35.3065C93.8802 36.3729 95.3496 36.8045 96.8349 36.8045C98.4559 36.8041 100.096 36.2906 101.384 35.5281C101.432 35.5002 101.471 35.464 101.515 35.4322C102.301 36.1194 103.284 36.5545 104.398 36.6816C106.357 36.9058 108.227 36.2702 109.841 34.8384C110.116 35.2929 110.508 35.7068 111.05 36.0546C111.823 36.5502 112.784 36.8689 113.843 36.8689C115.383 36.8689 117.131 36.1921 118.821 34.4123C119.291 34.9695 119.88 35.4515 120.594 35.8365C121.421 36.282 122.31 36.5054 123.231 36.5054C123.959 36.5054 124.707 36.3654 125.459 36.085C126.508 35.6936 127.53 35.0304 128.426 34.1995C128.6 34.6107 128.82 35.0082 129.106 35.3691C129.868 36.3314 130.951 36.889 132.239 36.9825C132.405 36.9943 132.567 37 132.728 37C136.954 36.9996 139.404 33.0006 139.511 32.8237C139.966 32.0659 139.727 31.0818 138.98 30.6177C138.232 30.1539 137.253 30.391 136.791 31.1448C136.773 31.1727 135.034 33.9553 132.466 33.7673C131.958 33.7308 131.741 33.5395 131.595 33.3572C130.18 31.5821 131.497 29.2142 132.188 27.4336C133.055 25.1965 133.922 22.959 134.789 20.7218C135.743 18.2616 136.696 15.8017 137.65 13.3418C138.303 11.6561 138.956 9.97083 139.609 8.28554C139.703 8.04453 139.796 7.80387 139.889 7.56286Z" fill="white"/>
<path fill-rule="evenodd" clip-rule="evenodd" d="M60.4414 48.12C57.8556 54.9656 53.1578 58.5497 46.4784 58.7729C42.9921 58.892 39.924 57.727 37.8379 55.5007C35.8783 53.4089 34.9579 50.4911 35.2472 47.2855C35.5095 44.3796 37.0716 40.0049 40.6119 37.2403C42.7951 35.5359 45.4299 34.6788 48.4729 34.6788C49.433 34.6788 50.4343 34.7643 51.4736 34.9353C55.7883 35.6446 58.1118 37.2063 61.2506 39.3675C61.7593 42.4816 61.4838 45.36 60.4414 48.12ZM73.1946 6.04316C74.0557 7.1395 74.5395 8.50304 74.5857 10.0211C74.652 12.2134 73.7714 13.778 72.3864 14.6472C71.3677 15.2864 70.1023 15.4663 69.1624 15.1068C68.515 14.8589 68.0972 14.3868 67.885 13.6642C66.9774 10.5737 69.7736 8.34207 70.6237 7.651C71.4149 7.00751 72.2789 6.47097 73.1946 6.04316ZM107.23 41.4096C102.36 46.7135 95.0023 48.433 85.3605 46.5182C75.9039 44.6403 68.1785 40.0464 67.3284 39.5288C66.1283 38.7977 65.0908 38.1056 64.1105 37.436C63.4698 34.5672 62.2874 31.5572 60.5599 28.3798C60.2135 27.7431 59.8539 27.1054 59.4919 26.464C56.8046 21.7006 54.266 17.2011 56.2764 11.6812C58.2744 6.77036 62.4021 3.45273 66.7995 3.22738C67.1204 3.21057 67.4576 3.21916 67.8005 3.25206C68.6662 3.33469 69.538 3.56612 70.3543 3.9231C69.7509 4.28867 69.1702 4.69608 68.6172 5.1457C65.307 7.83736 63.8293 11.1986 64.8218 14.5778C65.3148 16.2564 66.4535 17.5134 68.028 18.1161C69.895 18.8308 72.2118 18.5489 74.0749 17.38C76.4371 15.8977 77.8806 13.2743 77.7788 9.92273C77.7245 8.14141 77.2322 6.46739 76.3679 5.02695C79.7999 4.38024 83.5811 5.00477 86.9169 6.93561C87.6811 7.3788 88.6583 7.11303 89.0974 6.34184C89.5368 5.571 89.273 4.58698 88.5078 4.14451C83.9087 1.48147 78.5742 0.898068 73.9432 2.32098C73.8332 2.23728 73.7207 2.15573 73.6064 2.07596C71.9693 0.9367 70.0661 0.234901 68.1033 0.0471104C67.6067 -0.000105452 67.1137 -0.0119094 66.637 0.0120562C61.0004 0.301432 55.7685 4.41422 53.3083 10.49C53.3016 10.5068 53.2952 10.5237 53.2892 10.5405C50.7467 17.4769 53.9171 23.0967 56.7148 28.055C57.0683 28.6817 57.42 29.3048 57.7583 29.9269C58.6556 31.5766 59.3897 33.1558 59.9625 34.6756C57.7523 33.3464 55.4071 32.3202 51.9883 31.7579C46.7414 30.8955 42.2567 31.8838 38.6554 34.6957C34.3037 38.0934 32.3859 43.4445 32.0658 46.9943C31.6924 51.1321 32.9177 54.938 35.5152 57.7105C38.1176 60.4891 41.8233 62 45.9992 62C46.1934 62 46.3883 61.9968 46.5842 61.9903C54.5592 61.7239 60.3831 57.3235 63.4268 49.2653C64.3454 46.8337 64.7593 44.3044 64.6652 41.6546C64.9914 41.8617 65.3283 42.0717 65.6761 42.2838C66.5749 42.8314 74.7489 47.6922 84.7429 49.6767C95.3931 51.7914 103.98 49.6892 109.575 43.5962C110.174 42.9434 110.135 41.925 109.488 41.3216C108.84 40.7178 107.83 40.7568 107.23 41.4096Z" fill="white"/>
<mask id="mask0_2_771" style="mask-type:alpha" maskUnits="userSpaceOnUse" x="0" y="6" width="14" height="19">
<path fill-rule="evenodd" clip-rule="evenodd" d="M0 6.0918H13.8208V24.7337H0V6.0918Z" fill="white"/>
</mask>
<g mask="url(#mask0_2_771)">
<path fill-rule="evenodd" clip-rule="evenodd" d="M4.72039 22.2637C6.56349 22.2637 8.13674 21.5958 9.44119 20.2597C10.1009 19.5839 10.5941 18.848 10.9203 18.0514C11.2458 17.2559 11.4089 16.3758 11.4089 15.4129C11.4089 13.533 10.7526 11.9216 9.44119 10.5772C8.12904 9.23361 6.55579 8.56216 4.72039 8.56216H2.42299V22.2637H4.72039ZM4.72039 6.0918C7.22289 6.0918 9.36524 7.00487 11.1474 8.82995C12.042 9.74661 12.7112 10.7468 13.1554 11.8302C13.5988 12.9139 13.8207 14.1076 13.8207 15.4129C13.8207 17.984 12.9293 20.1823 11.1474 22.0073C9.37294 23.8249 7.23059 24.7337 4.72039 24.7337H1.21689C1.05029 24.7337 0.892789 24.7007 0.745089 24.6344C0.597039 24.5688 0.467889 24.4813 0.357989 24.3723C0.248439 24.2637 0.160939 24.1332 0.096539 23.9819C0.031789 23.8306 -6.10352e-05 23.6693 -6.10352e-05 23.4987V7.3268C-6.10352e-05 7.15616 0.031789 6.99483 0.096539 6.84319C0.160939 6.69191 0.248439 6.56214 0.357989 6.4528C0.467889 6.34453 0.597039 6.25706 0.745089 6.19074C0.892789 6.12514 1.05029 6.0918 1.21689 6.0918H4.72039Z" fill="white"/>
</g>
<path fill-rule="evenodd" clip-rule="evenodd" d="M18 23.8522V19.1482C18 18.8272 18.0972 18.5557 18.2918 18.3334C18.4864 18.1114 18.7207 18 18.9951 18C19.2695 18 19.5036 18.1114 19.6985 18.3334C19.8931 18.5557 19.9935 18.8272 20 19.1482V23.8522C19.9935 24.1728 19.8931 24.4443 19.6985 24.6663C19.5036 24.889 19.2695 25 18.9951 25C18.7207 25 18.4864 24.889 18.2918 24.6663C18.0972 24.4443 18 24.1728 18 23.8522Z" fill="white"/>
<path fill-rule="evenodd" clip-rule="evenodd" d="M43 23.8522V19.1482C43 18.8272 43.0972 18.5557 43.2918 18.3334C43.4864 18.1114 43.7207 18 43.9951 18C44.2695 18 44.5036 18.1114 44.6985 18.3334C44.8931 18.5557 44.9935 18.8272 45 19.1482V23.8522C44.9935 24.1728 44.8931 24.4443 44.6985 24.6663C44.5036 24.889 44.2695 25 43.9951 25C43.7207 25 43.4864 24.889 43.2918 24.6663C43.0972 24.4443 43 24.1728 43 23.8522Z" fill="white"/>
<path fill-rule="evenodd" clip-rule="evenodd" d="M31.5 14.4817C30.9271 14.4817 30.3932 14.5925 29.8982 14.8142C29.4029 15.036 28.9736 15.3349 28.6096 15.7106C28.2457 16.0873 27.9579 16.5283 27.7446 17.0347C27.5321 17.5415 27.4257 18.0801 27.4257 18.6501C27.4257 19.2198 27.5321 19.7584 27.7446 20.2648C27.9579 20.7716 28.2457 21.2134 28.6096 21.589C28.9736 21.9653 29.4029 22.2639 29.8982 22.4856C30.3932 22.7074 30.9271 22.8182 31.5 22.8182C32.0646 22.8182 32.5946 22.7074 33.09 22.4856C33.5854 22.2639 34.0168 21.9631 34.3843 21.5831C34.7514 21.2031 35.0421 20.7617 35.2546 20.2589C35.4671 19.7565 35.5739 19.2198 35.5739 18.6501C35.5739 18.0801 35.4671 17.5434 35.2546 17.0409C35.0421 16.5382 34.7514 16.0964 34.3843 15.7168C34.0168 15.3368 33.5854 15.036 33.09 14.8142C32.5946 14.5925 32.0646 14.4817 31.5 14.4817ZM35.5739 23.8394C34.4132 24.8132 33.055 25.2999 31.5 25.2999C29.7046 25.2999 28.1725 24.651 26.9036 23.3527C25.6343 22.0541 25 20.4866 25 18.6501C25 16.8133 25.6343 15.2458 26.9036 13.9472C28.1725 12.6489 29.7046 12 31.5 12C33.2796 12 34.8114 12.6489 36.0964 13.9472C37.3654 15.2458 38 16.8133 38 18.6501V25.2524C38 25.8224 37.9146 26.361 37.7443 26.8678C37.5743 27.3742 37.3386 27.8394 37.0364 28.2629C36.7346 28.6863 36.3786 29.0682 35.9689 29.4087C35.5582 29.7493 35.1157 30.0361 34.6396 30.2699C34.1639 30.5034 33.6664 30.6836 33.1482 30.8104C32.6296 30.9368 32.1114 31 31.5929 31C30.9732 31 30.3661 30.9189 29.7704 30.757C29.1743 30.5944 28.6096 30.3547 28.0757 30.0383C27.5418 29.7215 27.0521 29.3298 26.6075 28.8628C26.1625 28.3955 25.785 27.873 25.4757 27.2949C25.3518 27.113 25.2896 26.8912 25.2896 26.6299C25.2896 26.2737 25.4064 25.9788 25.6382 25.7457C25.8704 25.5118 26.1607 25.3953 26.5086 25.3953C26.7411 25.3953 26.9325 25.4504 27.0832 25.5615C27.2343 25.6719 27.4411 25.9174 27.7043 26.2978C27.9671 26.6774 28.1996 26.9664 28.4007 27.1641C29.2829 28.067 30.3468 28.5183 31.5929 28.5183C32.8464 28.5183 33.9061 28.0747 34.7732 27.1882C35.3068 26.5232 35.5739 25.8779 35.5739 25.2524V23.8394Z" fill="white"/>
<path fill-rule="evenodd" clip-rule="evenodd" d="M46 14.0004C46 14.5531 45.8053 15.0243 45.4151 15.4145C45.0245 15.8046 44.5528 16 44 16C43.4472 16 42.9758 15.8046 42.5856 15.4145C42.1947 15.0243 42 14.5531 42 14.0004C42 13.4469 42.1947 12.976 42.5856 12.5855C42.9758 12.1954 43.4472 12 44 12C44.5528 12 45.0245 12.1954 45.4151 12.5855C45.8053 12.976 46 13.4469 46 14.0004Z" fill="#EE6C8A"/>
<path fill-rule="evenodd" clip-rule="evenodd" d="M21 14.0004C21 14.5531 20.8049 15.0243 20.4148 15.4145C20.0243 15.8046 19.5526 16 18.9998 16C18.4474 16 17.9761 15.8046 17.5856 15.4145C17.1947 15.0243 17 14.5531 17 14.0004C17 13.4469 17.1947 12.976 17.5856 12.5855C17.9761 12.1954 18.4474 12 18.9998 12C19.5526 12 20.0243 12.1954 20.4148 12.5855C20.8049 12.976 21 13.4469 21 14.0004Z" fill="white"/>
</svg>
